<svg width="16" height="16" viewBox="0 0 16 16" fill="none" xmlns="http://www.w3.org/2000/svg">
<g clip-path="url(#clip0_124_1980)">
<rect width="16" height="16" fill="white"/>
<path d="M14.8627 13.4142C14.7374 13.439 10.0299 13.4242 8.04632 13.4172H8.02942C6.09208 13.4238 1.26377 13.439 1.13667 13.4142C0.657664 13.3206 0.833986 12.5734 0.846109 12.0512C0.846477 12.0364 0.846842 12.0209 0.846842 12.0061C0.847578 11.9909 0.848313 11.9761 0.848681 11.9605C0.860068 11.6127 1.01141 9.68159 1.03639 9.21196C1.061 8.74196 1.079 8.71346 1.16092 8.46329C1.15578 8.15575 1.26634 7.6802 1.37471 7.26127C1.44854 6.97631 1.52128 6.718 1.55507 6.5559C1.55507 6.5559 1.64213 6.01966 2.03812 5.51672C2.38269 5.08003 3.10745 5.04561 3.45789 5.04117V2.57201H12.288V5.04265C12.3592 5.0445 12.4621 5.04857 12.6017 5.05412C12.85 5.07744 13.1597 5.13221 13.4025 5.25989C13.79 5.46343 14.2922 6.26132 14.5515 6.86455C14.6162 7.01332 14.6654 7.15099 14.6948 7.26387C14.7973 7.56585 14.8252 8.15464 14.8491 8.47809C14.9266 8.71383 14.9446 8.75158 14.9688 9.21196C14.9938 9.68159 15.1448 11.6127 15.1565 11.9605C15.158 12.0146 15.1606 12.0686 15.1569 12.1215V12.1226C15.1808 12.6393 15.3204 13.3243 14.8627 13.4142Z" fill="white"/>
<path d="M14.7704 8.58733C14.7638 8.66683 14.6944 8.72121 14.5916 8.75817C14.578 8.76305 14.564 8.76758 14.5497 8.77177C14.5351 8.77595 14.5197 8.78014 14.5044 8.78362C14.4891 8.78746 14.473 8.79059 14.457 8.79408C14.3974 8.80559 14.3325 8.8143 14.2659 8.82023C14.2541 8.82128 14.2415 8.82232 14.2293 8.82337C14.2234 8.82372 14.2175 8.82441 14.2112 8.82476C14.199 8.82546 14.1868 8.8265 14.1746 8.8272C14.1376 8.82929 14.1007 8.83069 14.0637 8.83208C14.0519 8.83243 14.0397 8.83278 14.0278 8.83313C13.9797 8.83418 13.9323 8.83452 13.8873 8.83452C13.8465 8.83452 13.8078 8.83417 13.7719 8.83348C13.76 8.83348 13.7485 8.83313 13.737 8.83313C13.6914 8.83278 13.6516 8.83208 13.6192 8.83208H8.34561C8.04786 8.83208 6.09825 8.83696 4.3355 8.82929C4.28321 8.82894 4.23126 8.82894 4.17931 8.8286C4.11028 8.82825 4.04194 8.8279 3.97361 8.82755C3.90562 8.8272 3.83799 8.82685 3.77105 8.8265C3.73758 8.82615 3.70376 8.82581 3.67064 8.82581C3.6281 8.82546 3.58592 8.82511 3.54408 8.82476C3.52072 8.82476 3.49701 8.82441 3.47365 8.82441C3.42519 8.82406 3.37673 8.82372 3.32862 8.82337C3.31258 8.82302 3.29689 8.82302 3.2812 8.82302C3.25296 8.82267 3.22472 8.82232 3.19683 8.82197C3.16789 8.82197 3.1393 8.82162 3.11072 8.82128C3.05877 8.82093 3.00787 8.82058 2.95731 8.81988C2.94929 8.81953 2.94162 8.81953 2.93361 8.81953C2.91443 8.81918 2.89525 8.81918 2.87608 8.81883H2.86841C2.82413 8.81849 2.7809 8.81814 2.73802 8.81744C2.70873 8.81709 2.68014 8.81674 2.65155 8.81639C2.63377 8.81604 2.61634 8.8157 2.59891 8.8157C2.57485 8.81535 2.55114 8.815 2.52743 8.81465C2.48804 8.8143 2.44934 8.8136 2.41168 8.81291C2.40506 8.81291 2.39844 8.81256 2.39216 8.81256C2.37543 8.81221 2.35904 8.81186 2.34265 8.81186C2.34021 8.81186 2.33742 8.81151 2.33498 8.81186C2.30988 8.81151 2.28513 8.81081 2.26107 8.81047C2.25723 8.81047 2.2534 8.81012 2.24991 8.81012C2.22655 8.80977 2.20389 8.80942 2.18158 8.80907C2.15717 8.80838 2.13347 8.80803 2.11011 8.80768C2.08082 8.80698 2.05223 8.80628 2.02434 8.80559C1.9825 8.80489 1.94241 8.80384 1.90406 8.8028C1.8936 8.80245 1.88349 8.8021 1.87373 8.8021C1.78134 8.79966 1.69975 8.79687 1.63072 8.79373C1.61922 8.79338 1.60806 8.79303 1.59725 8.79234C1.58923 8.79199 1.58122 8.79164 1.57354 8.79129C1.56204 8.79059 1.55088 8.79025 1.54007 8.78955C1.51637 8.78815 1.49475 8.78676 1.47592 8.78536C1.46651 8.78467 1.45745 8.78397 1.44943 8.78327C1.43688 8.78223 1.42572 8.78118 1.41631 8.78014C1.41073 8.77944 1.40585 8.77874 1.40131 8.77804C1.39783 8.7777 1.39469 8.777 1.3919 8.77665C1.28522 8.75817 1.24233 8.63789 1.23919 8.46043C1.23397 8.15885 1.34344 7.69237 1.45047 7.28166C1.54461 7.35627 1.67814 7.39776 1.89953 7.39776H14.1634C14.382 7.39776 14.5149 7.35732 14.6086 7.28445C14.7101 7.58045 14.7376 8.1578 14.761 8.47472C14.7641 8.51726 14.7673 8.55561 14.7704 8.58733Z" fill="#7CBCE8" stroke="white" stroke-width="0.05" stroke-miterlimit="10"/>
<path d="M15.0647 11.8897C15.0532 11.5484 14.9039 9.65489 14.8795 9.19433C14.8555 8.74319 14.8377 8.70692 14.761 8.47542C14.7641 8.51796 14.7673 8.55561 14.7704 8.58734C14.7638 8.66683 14.6944 8.72122 14.5916 8.75818C14.578 8.76306 14.564 8.76759 14.5497 8.77177C14.5351 8.77596 14.5197 8.78014 14.5044 8.78363C14.4891 8.78746 14.473 8.79095 14.457 8.79409C14.3974 8.80559 14.3325 8.81431 14.2659 8.82023C14.2541 8.82128 14.2415 8.82233 14.2293 8.82337C14.2234 8.82372 14.2175 8.82442 14.2112 8.82477C14.199 8.82547 14.1868 8.82651 14.1746 8.82721C14.1376 8.8293 14.1007 8.83069 14.0637 8.83209C14.0518 8.83244 14.0396 8.83279 14.0278 8.83313C13.9797 8.83418 13.9323 8.83453 13.8873 8.83453C14.1195 9.12983 14.3733 9.80759 14.5208 10.5471C14.5257 10.5711 14.5302 10.5952 14.5347 10.6192C14.6805 11.3908 14.8551 12.0898 14.3674 12.0898C13.8796 12.0898 13.6192 12.1202 13.3727 12.2007C13.3392 12.2115 13.3026 12.2216 13.2636 12.2303C13.2214 12.2397 13.1764 12.2478 13.129 12.2547C12.8971 12.2899 12.612 12.2987 12.3526 12.2987H3.7808C3.52977 12.2987 3.25435 12.2903 3.02668 12.2582C2.97996 12.2516 2.93534 12.2439 2.8935 12.2352C2.84538 12.2254 2.80076 12.2139 2.76066 12.2007C2.51417 12.1202 2.25374 12.0898 1.76598 12.0898C1.27823 12.0898 1.4529 11.3908 1.59864 10.6192C1.60317 10.5952 1.6077 10.5711 1.61258 10.5471C1.61711 10.5241 1.62199 10.501 1.62688 10.4784C1.77679 9.76088 2.02433 9.09357 2.2499 8.81012C2.22654 8.80978 2.20388 8.80943 2.18157 8.80908C2.15716 8.80838 2.13345 8.80803 2.1101 8.80768C2.08081 8.80699 2.05222 8.80629 2.02433 8.80559C1.98249 8.80489 1.9424 8.80385 1.90405 8.8028C1.89359 8.80245 1.88348 8.8021 1.87371 8.8021C1.78132 8.79967 1.69974 8.79688 1.63071 8.79374C1.6192 8.79339 1.60805 8.79304 1.59724 8.79234C1.58922 8.79199 1.5812 8.79165 1.57353 8.7913C1.56203 8.7906 1.55087 8.79025 1.54006 8.78955C1.51635 8.78816 1.49474 8.78677 1.47591 8.78537C1.4665 8.78467 1.45743 8.78398 1.44942 8.78328C1.43686 8.78223 1.42571 8.78119 1.41629 8.78014C1.41072 8.77944 1.40583 8.77875 1.4013 8.77805C1.39782 8.7777 1.39468 8.777 1.39189 8.77665C1.2852 8.75818 1.24232 8.63789 1.23918 8.46043C1.1583 8.70553 1.14052 8.73377 1.11611 9.19433C1.09136 9.65489 0.942138 11.5484 0.930632 11.8897C0.930283 11.9047 0.929588 11.9193 0.92889 11.9343C0.92889 11.9486 0.928541 11.9636 0.928192 11.9783C0.9261 12.2872 1.02895 12.5692 2.52359 12.5692H13.4717C14.8527 12.5692 15.0458 12.3286 15.065 12.0483V12.0473C15.0688 11.9957 15.0664 11.9427 15.0647 11.8897Z" fill="#7CBCE8" stroke="white" stroke-width="0.05" stroke-miterlimit="10"/>
<path d="M14.3674 12.0898C13.8796 12.0898 13.6192 12.1201 13.3727 12.2007C13.3392 12.2115 13.3026 12.2216 13.2636 12.2303C13.2214 12.2397 13.1764 12.2477 13.129 12.2547C12.8971 12.2899 12.6119 12.2987 12.3525 12.2987H3.78079C3.52976 12.2987 3.25433 12.2903 3.02667 12.2582C2.97995 12.2516 2.93532 12.2439 2.89349 12.2352C2.84537 12.2254 2.80075 12.2139 2.76065 12.2007C2.51416 12.1201 2.25373 12.0898 1.76597 12.0898C1.27822 12.0898 1.45289 11.3908 1.59862 10.6192C1.60315 10.5952 1.60769 10.5711 1.61257 10.5471C1.6171 10.5241 1.62198 10.501 1.62686 10.4784C1.77678 9.76087 2.02432 9.09357 2.24989 8.81012C2.25338 8.81012 2.25721 8.81047 2.26105 8.81047C2.2851 8.81082 2.30986 8.81151 2.33496 8.81186C2.3374 8.81151 2.34019 8.81186 2.34263 8.81186C2.35902 8.81186 2.3754 8.81221 2.39214 8.81256C2.39841 8.81256 2.40504 8.81291 2.41166 8.81291C2.44931 8.81361 2.48801 8.8143 2.52741 8.81465C2.55112 8.815 2.57483 8.81535 2.59888 8.8157C2.61631 8.8157 2.63375 8.81605 2.65153 8.81639C2.68012 8.81674 2.70871 8.81709 2.73799 8.81744C2.78088 8.81814 2.82411 8.81849 2.86839 8.81884H2.87605C2.89523 8.81919 2.91441 8.81918 2.93358 8.81953C2.9416 8.81953 2.94927 8.81953 2.95729 8.81988C3.00784 8.82058 3.05874 8.82093 3.11069 8.82128C3.13928 8.82163 3.16787 8.82197 3.19681 8.82197C3.2247 8.82232 3.25294 8.82267 3.28118 8.82302C3.29687 8.82302 3.31256 8.82302 3.3286 8.82337C3.37671 8.82372 3.42517 8.82406 3.47363 8.82441C3.49699 8.82441 3.5207 8.82476 3.54406 8.82476C3.5859 8.82511 3.62808 8.82546 3.67062 8.82581C3.70373 8.82581 3.73755 8.82616 3.77102 8.8265C3.83796 8.82685 3.9056 8.8272 3.97359 8.82755C4.04192 8.8279 4.11025 8.82825 4.17929 8.8286C4.23123 8.82895 4.28318 8.82895 4.33548 8.8293C6.09822 8.83696 8.04784 8.83208 8.34558 8.83208H13.6192C13.6516 8.83208 13.6913 8.83278 13.737 8.83313C13.7485 8.83313 13.76 8.83348 13.7719 8.83348C13.8078 8.83418 13.8465 8.83453 13.8873 8.83453C14.1195 9.12983 14.3733 9.80759 14.5208 10.5471C14.5256 10.5711 14.5302 10.5952 14.5347 10.6192C14.6804 11.3908 14.8551 12.0898 14.3674 12.0898Z" fill="#478EBF" stroke="white" stroke-width="0.05" stroke-miterlimit="10"/>
<path d="M14.7746 13.315C14.6508 13.3394 10.0006 13.3247 8.04087 13.3178H8.02413C6.11043 13.3244 1.34097 13.3394 1.21511 13.315C0.742003 13.2229 0.916325 12.4904 0.92818 11.9783C0.926088 12.2872 1.02894 12.5692 2.52358 12.5692H13.4717C14.8527 12.5692 15.0458 12.3287 15.065 12.0484C15.0887 12.5549 15.2268 13.2268 14.7746 13.315Z" fill="#7CBCE8" stroke="white" stroke-width="0.05" stroke-miterlimit="10"/>
<path d="M12.2312 2.68375V5.10613C12.1709 5.10369 12.1343 5.10334 12.1183 5.10403C12.1144 5.10403 12.112 5.10403 12.1102 5.10438C12.0011 5.13681 11.1476 5.60922 8.00461 5.60922C4.86158 5.60922 3.6375 5.10334 3.6375 5.10334C3.60472 5.10403 3.56079 5.10403 3.50815 5.10473V2.68375H12.2312Z" fill="#FFB97D"/>
<path d="M14.6086 7.28445C14.5149 7.35732 14.382 7.39776 14.1634 7.39776H1.89952C1.67813 7.39776 1.5446 7.35627 1.45047 7.28166C1.52334 7.0024 1.59516 6.74893 1.62863 6.58995C1.62863 6.58995 1.71439 6.0642 2.10592 5.57121C2.4462 5.14308 3.16196 5.10926 3.50817 5.10473C3.56081 5.10403 3.60474 5.10403 3.63751 5.10333C3.63751 5.10333 4.8616 5.60922 8.00463 5.60922C11.1477 5.60922 12.0011 5.1368 12.1103 5.10438C12.112 5.10403 12.1144 5.10403 12.1183 5.10403C12.1343 5.10333 12.1709 5.10368 12.2312 5.10612C12.3017 5.10821 12.4031 5.11205 12.5412 5.11763C12.7863 5.14029 13.092 5.19398 13.3319 5.31914C13.7151 5.51892 14.2108 6.30127 14.4671 6.89257C14.5309 7.03866 14.5797 7.17358 14.6086 7.28445Z" fill="#7CBCE8" stroke="white" stroke-width="0.05" stroke-miterlimit="10"/>
<path d="M3.43749 9.84196C3.43749 9.85695 3.43156 9.8716 3.4204 9.88519C3.37961 9.93435 3.27119 9.96922 3.14393 9.96922C3.01668 9.96922 2.90825 9.93435 2.86746 9.88519C2.8563 9.8716 2.85037 9.85695 2.85037 9.84196C2.85037 9.77188 2.98181 9.71471 3.14393 9.71471C3.30605 9.71471 3.43749 9.77188 3.43749 9.84196Z" fill="#FFB97D"/>
<path d="M3.43749 9.92842C3.43749 9.99885 3.30605 10.0557 3.14393 10.0557C2.98181 10.0557 2.85037 9.99885 2.85037 9.92842C2.85037 9.91343 2.8563 9.89879 2.86746 9.88519C2.90825 9.93435 3.01668 9.96922 3.14393 9.96922C3.27119 9.96922 3.37961 9.93435 3.4204 9.88519C3.43156 9.89879 3.43749 9.91343 3.43749 9.92842Z" fill="#E19E87"/>
<path d="M3.14392 10.0625V10.5074" stroke="white" stroke-width="0.05" stroke-miterlimit="10"/>
<path d="M4.50963 9.84196C4.50963 9.85695 4.5037 9.8716 4.49255 9.88519C4.45176 9.93435 4.34333 9.96922 4.21607 9.96922C4.08882 9.96922 3.98039 9.93435 3.9396 9.88519C3.92844 9.8716 3.92252 9.85695 3.92252 9.84196C3.92252 9.77188 4.05396 9.71471 4.21607 9.71471C4.37819 9.71471 4.50963 9.77188 4.50963 9.84196Z" fill="#FFB97D"/>
<path d="M4.50963 9.92842C4.50963 9.99885 4.37819 10.0557 4.21607 10.0557C4.05396 10.0557 3.92252 9.99885 3.92252 9.92842C3.92252 9.91343 3.92844 9.89879 3.9396 9.88519C3.98039 9.93435 4.08882 9.96922 4.21607 9.96922C4.34333 9.96922 4.45176 9.93435 4.49255 9.88519C4.5037 9.89879 4.50963 9.91343 4.50963 9.92842Z" fill="#E19E87"/>
<path d="M4.21606 10.0625V10.5074" stroke="white" stroke-width="0.05" stroke-miterlimit="10"/>
<path d="M5.58181 9.84196C5.58181 9.85695 5.57588 9.8716 5.56472 9.88519C5.52393 9.93435 5.4155 9.96922 5.28825 9.96922C5.16099 9.96922 5.05257 9.93435 5.01177 9.88519C5.00062 9.8716 4.99469 9.85695 4.99469 9.84196C4.99469 9.77188 5.12613 9.71471 5.28825 9.71471C5.45037 9.71471 5.58181 9.77188 5.58181 9.84196Z" fill="#FFB97D"/>
<path d="M5.58181 9.92842C5.58181 9.99885 5.45037 10.0557 5.28825 10.0557C5.12613 10.0557 4.99469 9.99885 4.99469 9.92842C4.99469 9.91343 5.00062 9.89879 5.01177 9.88519C5.05257 9.93435 5.16099 9.96922 5.28825 9.96922C5.4155 9.96922 5.52393 9.93435 5.56472 9.88519C5.57588 9.89879 5.58181 9.91343 5.58181 9.92842Z" fill="#E19E87"/>
<path d="M5.28824 10.0625V10.5074" stroke="white" stroke-width="0.05" stroke-miterlimit="10"/>
<path d="M6.65395 9.84196C6.65395 9.85695 6.64802 9.8716 6.63687 9.88519C6.59607 9.93435 6.48765 9.96922 6.36039 9.96922C6.23314 9.96922 6.12471 9.93435 6.08392 9.88519C6.07276 9.8716 6.06683 9.85695 6.06683 9.84196C6.06683 9.77188 6.19827 9.71471 6.36039 9.71471C6.52251 9.71471 6.65395 9.77188 6.65395 9.84196Z" fill="#FFB97D"/>
<path d="M6.65395 9.92842C6.65395 9.99885 6.52251 10.0557 6.36039 10.0557C6.19827 10.0557 6.06683 9.99885 6.06683 9.92842C6.06683 9.91343 6.07276 9.89879 6.08392 9.88519C6.12471 9.93435 6.23314 9.96922 6.36039 9.96922C6.48765 9.96922 6.59607 9.93435 6.63687 9.88519C6.64802 9.89879 6.65395 9.91343 6.65395 9.92842Z" fill="#E19E87"/>
<path d="M6.36038 10.0625V10.5074" stroke="white" stroke-width="0.05" stroke-miterlimit="10"/>
<path d="M7.72612 9.84196C7.72612 9.85695 7.7202 9.8716 7.70904 9.88519C7.66825 9.93435 7.55982 9.96922 7.43257 9.96922C7.30531 9.96922 7.19688 9.93435 7.15609 9.88519C7.14493 9.8716 7.13901 9.85695 7.13901 9.84196C7.13901 9.77188 7.27045 9.71471 7.43257 9.71471C7.59469 9.71471 7.72612 9.77188 7.72612 9.84196Z" fill="#FFB97D"/>
<path d="M7.72612 9.92842C7.72612 9.99885 7.59469 10.0557 7.43257 10.0557C7.27045 10.0557 7.13901 9.99885 7.13901 9.92842C7.13901 9.91343 7.14493 9.89879 7.15609 9.88519C7.19688 9.93435 7.30531 9.96922 7.43257 9.96922C7.55982 9.96922 7.66825 9.93435 7.70904 9.88519C7.7202 9.89879 7.72612 9.91343 7.72612 9.92842Z" fill="#E19E87"/>
<path d="M7.43256 10.0625V10.5074" stroke="white" stroke-width="0.05" stroke-miterlimit="10"/>
<path d="M8.7983 9.84196C8.7983 9.85695 8.79237 9.8716 8.78121 9.88519C8.74042 9.93435 8.63199 9.96922 8.50474 9.96922C8.37749 9.96922 8.26906 9.93435 8.22826 9.88519C8.21711 9.8716 8.21118 9.85695 8.21118 9.84196C8.21118 9.77188 8.34262 9.71471 8.50474 9.71471C8.66686 9.71471 8.7983 9.77188 8.7983 9.84196Z" fill="#FFB97D"/>
<path d="M8.7983 9.92842C8.7983 9.99885 8.66686 10.0557 8.50474 10.0557C8.34262 10.0557 8.21118 9.99885 8.21118 9.92842C8.21118 9.91343 8.21711 9.89879 8.22826 9.88519C8.26906 9.93435 8.37749 9.96922 8.50474 9.96922C8.63199 9.96922 8.74042 9.93435 8.78121 9.88519C8.79237 9.89879 8.7983 9.91343 8.7983 9.92842Z" fill="#E19E87"/>
<path d="M8.50473 10.0625V10.5074" stroke="white" stroke-width="0.05" stroke-miterlimit="10"/>
<path d="M9.87044 9.84196C9.87044 9.85695 9.86451 9.8716 9.85336 9.88519C9.81257 9.93435 9.70414 9.96922 9.57688 9.96922C9.44963 9.96922 9.3412 9.93435 9.30041 9.88519C9.28925 9.8716 9.28333 9.85695 9.28333 9.84196C9.28333 9.77188 9.41476 9.71471 9.57688 9.71471C9.739 9.71471 9.87044 9.77188 9.87044 9.84196Z" fill="#FFB97D"/>
<path d="M9.87044 9.92842C9.87044 9.99885 9.739 10.0557 9.57688 10.0557C9.41476 10.0557 9.28333 9.99885 9.28333 9.92842C9.28333 9.91343 9.28925 9.89879 9.30041 9.88519C9.3412 9.93435 9.44963 9.96922 9.57688 9.96922C9.70414 9.96922 9.81257 9.93435 9.85336 9.88519C9.86451 9.89879 9.87044 9.91343 9.87044 9.92842Z" fill="#E19E87"/>
<path d="M9.57687 10.0625V10.5074" stroke="white" stroke-width="0.05" stroke-miterlimit="10"/>
<path d="M10.9426 9.84196C10.9426 9.85695 10.9367 9.8716 10.9255 9.88519C10.8847 9.93435 10.7763 9.96922 10.6491 9.96922C10.5218 9.96922 10.4134 9.93435 10.3726 9.88519C10.3614 9.8716 10.3555 9.85695 10.3555 9.84196C10.3555 9.77188 10.4869 9.71471 10.6491 9.71471C10.8112 9.71471 10.9426 9.77188 10.9426 9.84196Z" fill="#FFB97D"/>
<path d="M10.9426 9.92842C10.9426 9.99885 10.8112 10.0557 10.6491 10.0557C10.4869 10.0557 10.3555 9.99885 10.3555 9.92842C10.3555 9.91343 10.3614 9.89879 10.3726 9.88519C10.4134 9.93435 10.5218 9.96922 10.6491 9.96922C10.7763 9.96922 10.8847 9.93435 10.9255 9.88519C10.9367 9.89879 10.9426 9.91343 10.9426 9.92842Z" fill="#E19E87"/>
<path d="M10.649 10.0625V10.5074" stroke="white" stroke-width="0.05" stroke-miterlimit="10"/>
<path d="M12.0148 9.84196C12.0148 9.85695 12.0088 9.8716 11.9977 9.88519C11.9569 9.93435 11.8485 9.96922 11.7212 9.96922C11.5939 9.96922 11.4855 9.93435 11.4447 9.88519C11.4336 9.8716 11.4276 9.85695 11.4276 9.84196C11.4276 9.77188 11.5591 9.71471 11.7212 9.71471C11.8833 9.71471 12.0148 9.77188 12.0148 9.84196Z" fill="#FFB97D"/>
<path d="M12.0148 9.92842C12.0148 9.99885 11.8833 10.0557 11.7212 10.0557C11.5591 10.0557 11.4276 9.99885 11.4276 9.92842C11.4276 9.91343 11.4336 9.89879 11.4447 9.88519C11.4855 9.93435 11.5939 9.96922 11.7212 9.96922C11.8485 9.96922 11.9569 9.93435 11.9977 9.88519C12.0088 9.89879 12.0148 9.91343 12.0148 9.92842Z" fill="#E19E87"/>
<path d="M11.7212 10.0625V10.5074" stroke="white" stroke-width="0.05" stroke-miterlimit="10"/>
<path d="M13.0869 9.84196C13.0869 9.85695 13.081 9.8716 13.0698 9.88519C13.0291 9.93435 12.9206 9.96922 12.7934 9.96922C12.6661 9.96922 12.5577 9.93435 12.5169 9.88519C12.5057 9.8716 12.4998 9.85695 12.4998 9.84196C12.4998 9.77188 12.6313 9.71471 12.7934 9.71471C12.9555 9.71471 13.0869 9.77188 13.0869 9.84196Z" fill="#FFB97D"/>
<path d="M13.0869 9.92842C13.0869 9.99885 12.9555 10.0557 12.7934 10.0557C12.6313 10.0557 12.4998 9.99885 12.4998 9.92842C12.4998 9.91343 12.5057 9.89879 12.5169 9.88519C12.5577 9.93435 12.6661 9.96922 12.7934 9.96922C12.9206 9.96922 13.0291 9.93435 13.0698 9.88519C13.081 9.89879 13.0869 9.91343 13.0869 9.92842Z" fill="#E19E87"/>
<path d="M12.7934 10.0625V10.5074" stroke="white" stroke-width="0.05" stroke-miterlimit="10"/>
<path d="M3.19497 9.06152C3.19497 9.07651 3.18904 9.09115 3.17788 9.10475C3.13709 9.15391 3.02866 9.18878 2.90141 9.18878C2.77415 9.18878 2.66573 9.15391 2.62493 9.10475C2.61378 9.09115 2.60785 9.07651 2.60785 9.06152C2.60785 8.99144 2.73929 8.93427 2.90141 8.93427C3.06353 8.93427 3.19497 8.99144 3.19497 9.06152Z" fill="#FFB97D"/>
<path d="M3.19497 9.14798C3.19497 9.21841 3.06353 9.27524 2.90141 9.27524C2.73929 9.27524 2.60785 9.21841 2.60785 9.14798C2.60785 9.13299 2.61378 9.11835 2.62493 9.10475C2.66573 9.15391 2.77415 9.18877 2.90141 9.18877C3.02866 9.18877 3.13709 9.15391 3.17788 9.10475C3.18904 9.11835 3.19497 9.13299 3.19497 9.14798Z" fill="#E19E87"/>
<path d="M2.8992 9.27524V9.72013" stroke="white" stroke-width="0.05" stroke-miterlimit="10"/>
<path d="M4.26711 9.06152C4.26711 9.07651 4.26118 9.09115 4.25002 9.10475C4.20923 9.15391 4.10081 9.18878 3.97355 9.18878C3.8463 9.18878 3.73787 9.15391 3.69708 9.10475C3.68592 9.09115 3.67999 9.07651 3.67999 9.06152C3.67999 8.99144 3.81143 8.93427 3.97355 8.93427C4.13567 8.93427 4.26711 8.99144 4.26711 9.06152Z" fill="#FFB97D"/>
<path d="M4.26711 9.14798C4.26711 9.21841 4.13567 9.27524 3.97355 9.27524C3.81143 9.27524 3.67999 9.21841 3.67999 9.14798C3.67999 9.13299 3.68592 9.11835 3.69708 9.10475C3.73787 9.15391 3.8463 9.18877 3.97355 9.18877C4.10081 9.18877 4.20923 9.15391 4.25002 9.10475C4.26118 9.11835 4.26711 9.13299 4.26711 9.14798Z" fill="#E19E87"/>
<path d="M3.97134 9.27524V9.72013" stroke="white" stroke-width="0.05" stroke-miterlimit="10"/>
<path d="M5.33928 9.06152C5.33928 9.07651 5.33336 9.09115 5.3222 9.10475C5.28141 9.15391 5.17298 9.18878 5.04572 9.18878C4.91847 9.18878 4.81004 9.15391 4.76925 9.10475C4.75809 9.09115 4.75217 9.07651 4.75217 9.06152C4.75217 8.99144 4.88361 8.93427 5.04572 8.93427C5.20784 8.93427 5.33928 8.99144 5.33928 9.06152Z" fill="#FFB97D"/>
<path d="M5.33928 9.14798C5.33928 9.21841 5.20784 9.27524 5.04572 9.27524C4.88361 9.27524 4.75217 9.21841 4.75217 9.14798C4.75217 9.13299 4.75809 9.11835 4.76925 9.10475C4.81004 9.15391 4.91847 9.18877 5.04572 9.18877C5.17298 9.18877 5.28141 9.15391 5.3222 9.10475C5.33336 9.11835 5.33928 9.13299 5.33928 9.14798Z" fill="#E19E87"/>
<path d="M5.04352 9.27524V9.72013" stroke="white" stroke-width="0.05" stroke-miterlimit="10"/>
<path d="M6.41143 9.06152C6.41143 9.07651 6.4055 9.09115 6.39434 9.10475C6.35355 9.15391 6.24512 9.18878 6.11787 9.18878C5.99061 9.18878 5.88219 9.15391 5.84139 9.10475C5.83024 9.09115 5.82431 9.07651 5.82431 9.06152C5.82431 8.99144 5.95575 8.93427 6.11787 8.93427C6.27999 8.93427 6.41143 8.99144 6.41143 9.06152Z" fill="#FFB97D"/>
<path d="M6.41143 9.14798C6.41143 9.21841 6.27999 9.27524 6.11787 9.27524C5.95575 9.27524 5.82431 9.21841 5.82431 9.14798C5.82431 9.13299 5.83024 9.11835 5.84139 9.10475C5.88219 9.15391 5.99061 9.18877 6.11787 9.18877C6.24512 9.18877 6.35355 9.15391 6.39434 9.10475C6.4055 9.11835 6.41143 9.13299 6.41143 9.14798Z" fill="#E19E87"/>
<path d="M6.11566 9.27524V9.72013" stroke="white" stroke-width="0.05" stroke-miterlimit="10"/>
<path d="M7.4836 9.06152C7.4836 9.07651 7.47767 9.09115 7.46652 9.10475C7.42573 9.15391 7.3173 9.18878 7.19004 9.18878C7.06279 9.18878 6.95436 9.15391 6.91357 9.10475C6.90241 9.09115 6.89648 9.07651 6.89648 9.06152C6.89648 8.99144 7.02792 8.93427 7.19004 8.93427C7.35216 8.93427 7.4836 8.99144 7.4836 9.06152Z" fill="#FFB97D"/>
<path d="M7.4836 9.14798C7.4836 9.21841 7.35216 9.27524 7.19004 9.27524C7.02792 9.27524 6.89648 9.21841 6.89648 9.14798C6.89648 9.13299 6.90241 9.11835 6.91357 9.10475C6.95436 9.15391 7.06279 9.18877 7.19004 9.18877C7.3173 9.18877 7.42573 9.15391 7.46652 9.10475C7.47767 9.11835 7.4836 9.13299 7.4836 9.14798Z" fill="#E19E87"/>
<path d="M7.18784 9.27524V9.72013" stroke="white" stroke-width="0.05" stroke-miterlimit="10"/>
<path d="M8.55578 9.06152C8.55578 9.07651 8.54985 9.09115 8.53869 9.10475C8.4979 9.15391 8.38947 9.18878 8.26222 9.18878C8.13496 9.18878 8.02653 9.15391 7.98574 9.10475C7.97458 9.09115 7.96866 9.07651 7.96866 9.06152C7.96866 8.99144 8.1001 8.93427 8.26222 8.93427C8.42434 8.93427 8.55578 8.99144 8.55578 9.06152Z" fill="#FFB97D"/>
<path d="M8.55578 9.14798C8.55578 9.21841 8.42434 9.27524 8.26222 9.27524C8.1001 9.27524 7.96866 9.21841 7.96866 9.14798C7.96866 9.13299 7.97458 9.11835 7.98574 9.10475C8.02653 9.15391 8.13496 9.18877 8.26222 9.18877C8.38947 9.18877 8.4979 9.15391 8.53869 9.10475C8.54985 9.11835 8.55578 9.13299 8.55578 9.14798Z" fill="#E19E87"/>
<path d="M8.26001 9.27524V9.72013" stroke="white" stroke-width="0.05" stroke-miterlimit="10"/>
<path d="M9.62792 9.06152C9.62792 9.07651 9.62199 9.09115 9.61083 9.10475C9.57004 9.15391 9.46162 9.18878 9.33436 9.18878C9.20711 9.18878 9.09868 9.15391 9.05789 9.10475C9.04673 9.09115 9.0408 9.07651 9.0408 9.06152C9.0408 8.99144 9.17224 8.93427 9.33436 8.93427C9.49648 8.93427 9.62792 8.99144 9.62792 9.06152Z" fill="#FFB97D"/>
<path d="M9.62792 9.14798C9.62792 9.21841 9.49648 9.27524 9.33436 9.27524C9.17224 9.27524 9.0408 9.21841 9.0408 9.14798C9.0408 9.13299 9.04673 9.11835 9.05789 9.10475C9.09868 9.15391 9.20711 9.18877 9.33436 9.18877C9.46162 9.18877 9.57004 9.15391 9.61083 9.10475C9.62199 9.11835 9.62792 9.13299 9.62792 9.14798Z" fill="#E19E87"/>
<path d="M9.33215 9.27524V9.72013" stroke="white" stroke-width="0.05" stroke-miterlimit="10"/>
<path d="M10.7001 9.06152C10.7001 9.07651 10.6942 9.09115 10.683 9.10475C10.6422 9.15391 10.5338 9.18878 10.4065 9.18878C10.2793 9.18878 10.1709 9.15391 10.1301 9.10475C10.1189 9.09115 10.113 9.07651 10.113 9.06152C10.113 8.99144 10.2444 8.93427 10.4065 8.93427C10.5687 8.93427 10.7001 8.99144 10.7001 9.06152Z" fill="#FFB97D"/>
<path d="M10.7001 9.14798C10.7001 9.21841 10.5687 9.27524 10.4065 9.27524C10.2444 9.27524 10.113 9.21841 10.113 9.14798C10.113 9.13299 10.1189 9.11835 10.1301 9.10475C10.1709 9.15391 10.2793 9.18877 10.4065 9.18877C10.5338 9.18877 10.6422 9.15391 10.683 9.10475C10.6942 9.11835 10.7001 9.13299 10.7001 9.14798Z" fill="#E19E87"/>
<path d="M10.4043 9.27524V9.72013" stroke="white" stroke-width="0.05" stroke-miterlimit="10"/>
<path d="M11.7722 9.06152C11.7722 9.07651 11.7663 9.09115 11.7552 9.10475C11.7144 9.15391 11.6059 9.18878 11.4787 9.18878C11.3514 9.18878 11.243 9.15391 11.2022 9.10475C11.191 9.09115 11.1851 9.07651 11.1851 9.06152C11.1851 8.99144 11.3166 8.93427 11.4787 8.93427C11.6408 8.93427 11.7722 8.99144 11.7722 9.06152Z" fill="#FFB97D"/>
<path d="M11.7722 9.14798C11.7722 9.21841 11.6408 9.27524 11.4787 9.27524C11.3166 9.27524 11.1851 9.21841 11.1851 9.14798C11.1851 9.13299 11.191 9.11835 11.2022 9.10475C11.243 9.15391 11.3514 9.18877 11.4787 9.18877C11.6059 9.18877 11.7144 9.15391 11.7552 9.10475C11.7663 9.11835 11.7722 9.13299 11.7722 9.14798Z" fill="#E19E87"/>
<path d="M11.4765 9.27524V9.72013" stroke="white" stroke-width="0.05" stroke-miterlimit="10"/>
<path d="M12.8444 9.06152C12.8444 9.07651 12.8385 9.09115 12.8273 9.10475C12.7865 9.15391 12.6781 9.18878 12.5509 9.18878C12.4236 9.18878 12.3152 9.15391 12.2744 9.10475C12.2632 9.09115 12.2573 9.07651 12.2573 9.06152C12.2573 8.99144 12.3887 8.93427 12.5509 8.93427C12.713 8.93427 12.8444 8.99144 12.8444 9.06152Z" fill="#FFB97D"/>
<path d="M12.8444 9.14798C12.8444 9.21841 12.713 9.27524 12.5509 9.27524C12.3887 9.27524 12.2573 9.21841 12.2573 9.14798C12.2573 9.13299 12.2632 9.11835 12.2744 9.10475C12.3152 9.15391 12.4236 9.18877 12.5509 9.18877C12.6781 9.18877 12.7865 9.15391 12.8273 9.10475C12.8385 9.11835 12.8444 9.13299 12.8444 9.14798Z" fill="#E19E87"/>
<path d="M12.5486 9.27524V9.72013" stroke="white" stroke-width="0.05" stroke-miterlimit="10"/>
<path d="M3.73104 8.28108C3.73104 8.29607 3.72511 8.31071 3.71395 8.32431C3.67316 8.37347 3.56473 8.40833 3.43748 8.40833C3.31022 8.40833 3.2018 8.37347 3.161 8.32431C3.14985 8.31071 3.14392 8.29607 3.14392 8.28108C3.14392 8.211 3.27536 8.15382 3.43748 8.15382C3.5996 8.15382 3.73104 8.211 3.73104 8.28108Z" fill="#FFB97D"/>
<path d="M3.73104 8.36754C3.73104 8.43797 3.5996 8.49479 3.43748 8.49479C3.27536 8.49479 3.14392 8.43797 3.14392 8.36754C3.14392 8.35255 3.14985 8.33791 3.161 8.32431C3.2018 8.37347 3.31022 8.40833 3.43748 8.40833C3.56473 8.40833 3.67316 8.37347 3.71395 8.32431C3.72511 8.33791 3.73104 8.35255 3.73104 8.36754Z" fill="#E19E87"/>
<path d="M3.43747 8.4948V8.83452" stroke="white" stroke-width="0.05" stroke-miterlimit="10"/>
<path d="M4.80321 8.28108C4.80321 8.29607 4.79728 8.31071 4.78613 8.32431C4.74534 8.37347 4.63691 8.40833 4.50965 8.40833C4.3824 8.40833 4.27397 8.37347 4.23318 8.32431C4.22202 8.31071 4.21609 8.29607 4.21609 8.28108C4.21609 8.211 4.34753 8.15382 4.50965 8.15382C4.67177 8.15382 4.80321 8.211 4.80321 8.28108Z" fill="#FFB97D"/>
<path d="M4.80321 8.36754C4.80321 8.43797 4.67177 8.49479 4.50965 8.49479C4.34753 8.49479 4.21609 8.43797 4.21609 8.36754C4.21609 8.35255 4.22202 8.33791 4.23318 8.32431C4.27397 8.37347 4.3824 8.40833 4.50965 8.40833C4.63691 8.40833 4.74534 8.37347 4.78613 8.32431C4.79728 8.33791 4.80321 8.35255 4.80321 8.36754Z" fill="#E19E87"/>
<path d="M4.50964 8.4948V8.83452" stroke="white" stroke-width="0.05" stroke-miterlimit="10"/>
<path d="M5.87536 8.28108C5.87536 8.29607 5.86943 8.31071 5.85827 8.32431C5.81748 8.37347 5.70905 8.40833 5.5818 8.40833C5.45454 8.40833 5.34611 8.37347 5.30532 8.32431C5.29416 8.31071 5.28824 8.29607 5.28824 8.28108C5.28824 8.211 5.41968 8.15382 5.5818 8.15382C5.74392 8.15382 5.87536 8.211 5.87536 8.28108Z" fill="#FFB97D"/>
<path d="M5.87536 8.36754C5.87536 8.43797 5.74392 8.49479 5.5818 8.49479C5.41968 8.49479 5.28824 8.43797 5.28824 8.36754C5.28824 8.35255 5.29416 8.33791 5.30532 8.32431C5.34611 8.37347 5.45454 8.40833 5.5818 8.40833C5.70905 8.40833 5.81748 8.37347 5.85827 8.32431C5.86943 8.33791 5.87536 8.35255 5.87536 8.36754Z" fill="#E19E87"/>
<path d="M5.58179 8.4948V8.83452" stroke="white" stroke-width="0.05" stroke-miterlimit="10"/>
<path d="M6.94753 8.28108C6.94753 8.29607 6.9416 8.31071 6.93044 8.32431C6.88965 8.37347 6.78123 8.40833 6.65397 8.40833C6.52672 8.40833 6.41829 8.37347 6.3775 8.32431C6.36634 8.31071 6.36041 8.29607 6.36041 8.28108C6.36041 8.211 6.49185 8.15382 6.65397 8.15382C6.81609 8.15382 6.94753 8.211 6.94753 8.28108Z" fill="#FFB97D"/>
<path d="M6.94753 8.36754C6.94753 8.43797 6.81609 8.49479 6.65397 8.49479C6.49185 8.49479 6.36041 8.43797 6.36041 8.36754C6.36041 8.35255 6.36634 8.33791 6.3775 8.32431C6.41829 8.37347 6.52672 8.40833 6.65397 8.40833C6.78123 8.40833 6.88965 8.37347 6.93044 8.32431C6.9416 8.33791 6.94753 8.35255 6.94753 8.36754Z" fill="#E19E87"/>
<path d="M6.65396 8.4948V8.83452" stroke="white" stroke-width="0.05" stroke-miterlimit="10"/>
<path d="M8.01967 8.28108C8.01967 8.29607 8.01375 8.31071 8.00259 8.32431C7.9618 8.37347 7.85337 8.40833 7.72611 8.40833C7.59886 8.40833 7.49043 8.37347 7.44964 8.32431C7.43848 8.31071 7.43256 8.29607 7.43256 8.28108C7.43256 8.211 7.564 8.15382 7.72611 8.15382C7.88823 8.15382 8.01967 8.211 8.01967 8.28108Z" fill="#FFB97D"/>
<path d="M8.01967 8.36754C8.01967 8.43797 7.88823 8.49479 7.72611 8.49479C7.564 8.49479 7.43256 8.43797 7.43256 8.36754C7.43256 8.35255 7.43848 8.33791 7.44964 8.32431C7.49043 8.37347 7.59886 8.40833 7.72611 8.40833C7.85337 8.40833 7.9618 8.37347 8.00259 8.32431C8.01375 8.33791 8.01967 8.35255 8.01967 8.36754Z" fill="#E19E87"/>
<path d="M7.7261 8.4948V8.83452" stroke="white" stroke-width="0.05" stroke-miterlimit="10"/>
<path d="M9.09185 8.28108C9.09185 8.29607 9.08592 8.31071 9.07476 8.32431C9.03397 8.37347 8.92554 8.40833 8.79829 8.40833C8.67103 8.40833 8.56261 8.37347 8.52181 8.32431C8.51066 8.31071 8.50473 8.29607 8.50473 8.28108C8.50473 8.211 8.63617 8.15382 8.79829 8.15382C8.96041 8.15382 9.09185 8.211 9.09185 8.28108Z" fill="#FFB97D"/>
<path d="M9.09185 8.36754C9.09185 8.43797 8.96041 8.49479 8.79829 8.49479C8.63617 8.49479 8.50473 8.43797 8.50473 8.36754C8.50473 8.35255 8.51066 8.33791 8.52181 8.32431C8.56261 8.37347 8.67103 8.40833 8.79829 8.40833C8.92554 8.40833 9.03397 8.37347 9.07476 8.32431C9.08592 8.33791 9.09185 8.35255 9.09185 8.36754Z" fill="#E19E87"/>
<path d="M8.79828 8.4948V8.83452" stroke="white" stroke-width="0.05" stroke-miterlimit="10"/>
<path d="M10.164 8.28108C10.164 8.29607 10.1581 8.31071 10.1469 8.32431C10.1061 8.37347 9.99769 8.40833 9.87043 8.40833C9.74318 8.40833 9.63475 8.37347 9.59396 8.32431C9.5828 8.31071 9.57687 8.29607 9.57687 8.28108C9.57687 8.211 9.70831 8.15382 9.87043 8.15382C10.0326 8.15382 10.164 8.211 10.164 8.28108Z" fill="#FFB97D"/>
<path d="M10.164 8.36754C10.164 8.43797 10.0326 8.49479 9.87043 8.49479C9.70831 8.49479 9.57687 8.43797 9.57687 8.36754C9.57687 8.35255 9.5828 8.33791 9.59396 8.32431C9.63475 8.37347 9.74318 8.40833 9.87043 8.40833C9.99769 8.40833 10.1061 8.37347 10.1469 8.32431C10.1581 8.33791 10.164 8.35255 10.164 8.36754Z" fill="#E19E87"/>
<path d="M9.87042 8.4948V8.83452" stroke="white" stroke-width="0.05" stroke-miterlimit="10"/>
<path d="M11.2362 8.28108C11.2362 8.29607 11.2302 8.31071 11.2191 8.32431C11.1783 8.37347 11.0699 8.40833 10.9426 8.40833C10.8154 8.40833 10.7069 8.37347 10.6661 8.32431C10.655 8.31071 10.649 8.29607 10.649 8.28108C10.649 8.211 10.7805 8.15382 10.9426 8.15382C11.1047 8.15382 11.2362 8.211 11.2362 8.28108Z" fill="#FFB97D"/>
<path d="M11.2362 8.36754C11.2362 8.43797 11.1047 8.49479 10.9426 8.49479C10.7805 8.49479 10.649 8.43797 10.649 8.36754C10.649 8.35255 10.655 8.33791 10.6661 8.32431C10.7069 8.37347 10.8154 8.40833 10.9426 8.40833C11.0699 8.40833 11.1783 8.37347 11.2191 8.32431C11.2302 8.33791 11.2362 8.35255 11.2362 8.36754Z" fill="#E19E87"/>
<path d="M10.9426 8.4948V8.83452" stroke="white" stroke-width="0.05" stroke-miterlimit="10"/>
<path d="M12.3083 8.28108C12.3083 8.29607 12.3024 8.31071 12.2913 8.32431C12.2505 8.37347 12.142 8.40833 12.0148 8.40833C11.8875 8.40833 11.7791 8.37347 11.7383 8.32431C11.7271 8.31071 11.7212 8.29607 11.7212 8.28108C11.7212 8.211 11.8527 8.15382 12.0148 8.15382C12.1769 8.15382 12.3083 8.211 12.3083 8.28108Z" fill="#FFB97D"/>
<path d="M12.3083 8.36754C12.3083 8.43797 12.1769 8.49479 12.0148 8.49479C11.8527 8.49479 11.7212 8.43797 11.7212 8.36754C11.7212 8.35255 11.7271 8.33791 11.7383 8.32431C11.7791 8.37347 11.8875 8.40833 12.0148 8.40833C12.142 8.40833 12.2505 8.37347 12.2913 8.32431C12.3024 8.33791 12.3083 8.35255 12.3083 8.36754Z" fill="#E19E87"/>
<path d="M12.0148 8.4948V8.83452" stroke="white" stroke-width="0.05" stroke-miterlimit="10"/>
<path d="M13.3805 8.28108C13.3805 8.29607 13.3746 8.31071 13.3634 8.32431C13.3226 8.37347 13.2142 8.40833 13.0869 8.40833C12.9597 8.40833 12.8512 8.37347 12.8104 8.32431C12.7993 8.31071 12.7934 8.29607 12.7934 8.28108C12.7934 8.211 12.9248 8.15382 13.0869 8.15382C13.249 8.15382 13.3805 8.211 13.3805 8.28108Z" fill="#FFB97D"/>
<path d="M13.3805 8.36754C13.3805 8.43797 13.249 8.49479 13.0869 8.49479C12.9248 8.49479 12.7934 8.43797 12.7934 8.36754C12.7934 8.35255 12.7993 8.33791 12.8104 8.32431C12.8512 8.37347 12.9597 8.40833 13.0869 8.40833C13.2142 8.40833 13.3226 8.37347 13.3634 8.32431C13.3746 8.33791 13.3805 8.35255 13.3805 8.36754Z" fill="#E19E87"/>
<path d="M13.0869 8.4948V8.83452" stroke="white" stroke-width="0.05" stroke-miterlimit="10"/>
<path d="M4.09423 10.6419C4.09423 10.6569 4.0883 10.6716 4.07714 10.6852C4.03635 10.7343 3.92792 10.7692 3.80067 10.7692C3.67341 10.7692 3.56499 10.7343 3.52419 10.6852C3.51304 10.6716 3.50711 10.6569 3.50711 10.6419C3.50711 10.5719 3.63855 10.5147 3.80067 10.5147C3.96279 10.5147 4.09423 10.5719 4.09423 10.6419Z" fill="#FFB97D"/>
<path d="M4.09423 10.7284C4.09423 10.7988 3.96279 10.8557 3.80067 10.8557C3.63855 10.8557 3.50711 10.7988 3.50711 10.7284C3.50711 10.7134 3.51304 10.6988 3.52419 10.6852C3.56499 10.7343 3.67341 10.7692 3.80067 10.7692C3.92792 10.7692 4.03635 10.7343 4.07714 10.6852C4.0883 10.6988 4.09423 10.7134 4.09423 10.7284Z" fill="#E19E87"/>
<path d="M3.80066 10.8619V11.3068" stroke="white" stroke-width="0.05" stroke-miterlimit="10"/>
<path d="M5.16637 10.6419C5.16637 10.6569 5.16044 10.6716 5.14929 10.6852C5.1085 10.7343 5.00007 10.7692 4.87281 10.7692C4.74556 10.7692 4.63713 10.7343 4.59634 10.6852C4.58518 10.6716 4.57925 10.6569 4.57925 10.6419C4.57925 10.5719 4.71069 10.5147 4.87281 10.5147C5.03493 10.5147 5.16637 10.5719 5.16637 10.6419Z" fill="#FFB97D"/>
<path d="M5.16637 10.7284C5.16637 10.7988 5.03493 10.8557 4.87281 10.8557C4.71069 10.8557 4.57925 10.7988 4.57925 10.7284C4.57925 10.7134 4.58518 10.6988 4.59634 10.6852C4.63713 10.7343 4.74556 10.7692 4.87281 10.7692C5.00007 10.7692 5.1085 10.7343 5.14929 10.6852C5.16044 10.6988 5.16637 10.7134 5.16637 10.7284Z" fill="#E19E87"/>
<path d="M4.8728 10.8619V11.3068" stroke="white" stroke-width="0.05" stroke-miterlimit="10"/>
<path d="M6.23836 10.6419C6.23836 10.6569 6.23244 10.6716 6.22128 10.6852C6.18049 10.7343 6.07206 10.7692 5.94481 10.7692C5.81755 10.7692 5.70912 10.7343 5.66833 10.6852C5.65717 10.6716 5.65125 10.6569 5.65125 10.6419C5.65125 10.5719 5.78268 10.5147 5.94481 10.5147C6.10692 10.5147 6.23836 10.5719 6.23836 10.6419Z" fill="#FFB97D"/>
<path d="M6.23836 10.7284C6.23836 10.7988 6.10692 10.8557 5.94481 10.8557C5.78268 10.8557 5.65125 10.7988 5.65125 10.7284C5.65125 10.7134 5.65717 10.6988 5.66833 10.6852C5.70912 10.7343 5.81755 10.7692 5.94481 10.7692C6.07206 10.7692 6.18049 10.7343 6.22128 10.6852C6.23244 10.6988 6.23836 10.7134 6.23836 10.7284Z" fill="#E19E87"/>
<path d="M5.94498 10.8619V11.3068" stroke="white" stroke-width="0.05" stroke-miterlimit="10"/>
<path d="M7.31069 10.6419C7.31069 10.6569 7.30476 10.6716 7.2936 10.6852C7.25281 10.7343 7.14439 10.7692 7.01713 10.7692C6.88988 10.7692 6.78145 10.7343 6.74065 10.6852C6.7295 10.6716 6.72357 10.6569 6.72357 10.6419C6.72357 10.5719 6.85501 10.5147 7.01713 10.5147C7.17925 10.5147 7.31069 10.5719 7.31069 10.6419Z" fill="#FFB97D"/>
<path d="M7.31069 10.7284C7.31069 10.7988 7.17925 10.8557 7.01713 10.8557C6.85501 10.8557 6.72357 10.7988 6.72357 10.7284C6.72357 10.7134 6.7295 10.6988 6.74065 10.6852C6.78145 10.7343 6.88988 10.7692 7.01713 10.7692C7.14439 10.7692 7.25281 10.7343 7.2936 10.6852C7.30476 10.6988 7.31069 10.7134 7.31069 10.7284Z" fill="#E19E87"/>
<path d="M7.01712 10.8619V11.3068" stroke="white" stroke-width="0.05" stroke-miterlimit="10"/>
<path d="M8.38286 10.6419C8.38286 10.6569 8.37693 10.6716 8.36578 10.6852C8.32499 10.7343 8.21656 10.7692 8.0893 10.7692C7.96205 10.7692 7.85362 10.7343 7.81283 10.6852C7.80167 10.6716 7.79575 10.6569 7.79575 10.6419C7.79575 10.5719 7.92718 10.5147 8.0893 10.5147C8.25142 10.5147 8.38286 10.5719 8.38286 10.6419Z" fill="#FFB97D"/>
<path d="M8.38286 10.7284C8.38286 10.7988 8.25142 10.8557 8.0893 10.8557C7.92718 10.8557 7.79575 10.7988 7.79575 10.7284C7.79575 10.7134 7.80167 10.6988 7.81283 10.6852C7.85362 10.7343 7.96205 10.7692 8.0893 10.7692C8.21656 10.7692 8.32499 10.7343 8.36578 10.6852C8.37693 10.6988 8.38286 10.7134 8.38286 10.7284Z" fill="#E19E87"/>
<path d="M8.08929 10.8619V11.3068" stroke="white" stroke-width="0.05" stroke-miterlimit="10"/>
<path d="M9.45504 10.6419C9.45504 10.6569 9.44911 10.6716 9.43795 10.6852C9.39716 10.7343 9.28873 10.7692 9.16148 10.7692C9.03422 10.7692 8.9258 10.7343 8.885 10.6852C8.87385 10.6716 8.86792 10.6569 8.86792 10.6419C8.86792 10.5719 8.99936 10.5147 9.16148 10.5147C9.3236 10.5147 9.45504 10.5719 9.45504 10.6419Z" fill="#FFB97D"/>
<path d="M9.45504 10.7284C9.45504 10.7988 9.3236 10.8557 9.16148 10.8557C8.99936 10.8557 8.86792 10.7988 8.86792 10.7284C8.86792 10.7134 8.87385 10.6988 8.885 10.6852C8.9258 10.7343 9.03422 10.7692 9.16148 10.7692C9.28873 10.7692 9.39716 10.7343 9.43795 10.6852C9.44911 10.6988 9.45504 10.7134 9.45504 10.7284Z" fill="#E19E87"/>
<path d="M9.16147 10.8619V11.3068" stroke="white" stroke-width="0.05" stroke-miterlimit="10"/>
<path d="M10.5272 10.6419C10.5272 10.6569 10.5213 10.6716 10.5101 10.6852C10.4693 10.7343 10.3609 10.7692 10.2336 10.7692C10.1064 10.7692 9.99794 10.7343 9.95715 10.6852C9.94599 10.6716 9.94006 10.6569 9.94006 10.6419C9.94006 10.5719 10.0715 10.5147 10.2336 10.5147C10.3957 10.5147 10.5272 10.5719 10.5272 10.6419Z" fill="#FFB97D"/>
<path d="M10.5272 10.7284C10.5272 10.7988 10.3957 10.8557 10.2336 10.8557C10.0715 10.8557 9.94006 10.7988 9.94006 10.7284C9.94006 10.7134 9.94599 10.6988 9.95715 10.6852C9.99794 10.7343 10.1064 10.7692 10.2336 10.7692C10.3609 10.7692 10.4693 10.7343 10.5101 10.6852C10.5213 10.6988 10.5272 10.7134 10.5272 10.7284Z" fill="#E19E87"/>
<path d="M10.2336 10.8619V11.3068" stroke="white" stroke-width="0.05" stroke-miterlimit="10"/>
<path d="M11.5994 10.6419C11.5994 10.6569 11.5934 10.6716 11.5823 10.6852C11.5415 10.7343 11.4331 10.7692 11.3058 10.7692C11.1785 10.7692 11.0701 10.7343 11.0293 10.6852C11.0182 10.6716 11.0122 10.6569 11.0122 10.6419C11.0122 10.5719 11.1437 10.5147 11.3058 10.5147C11.4679 10.5147 11.5994 10.5719 11.5994 10.6419Z" fill="#FFB97D"/>
<path d="M11.5994 10.7284C11.5994 10.7988 11.4679 10.8557 11.3058 10.8557C11.1437 10.8557 11.0122 10.7988 11.0122 10.7284C11.0122 10.7134 11.0182 10.6988 11.0293 10.6852C11.0701 10.7343 11.1785 10.7692 11.3058 10.7692C11.4331 10.7692 11.5415 10.7343 11.5823 10.6852C11.5934 10.6988 11.5994 10.7134 11.5994 10.7284Z" fill="#E19E87"/>
<path d="M11.3058 10.8619V11.3068" stroke="white" stroke-width="0.05" stroke-miterlimit="10"/>
<path d="M12.6715 10.6419C12.6715 10.6569 12.6656 10.6716 12.6544 10.6852C12.6136 10.7343 12.5052 10.7692 12.3779 10.7692C12.2507 10.7692 12.1423 10.7343 12.1015 10.6852C12.0903 10.6716 12.0844 10.6569 12.0844 10.6419C12.0844 10.5719 12.2158 10.5147 12.3779 10.5147C12.5401 10.5147 12.6715 10.5719 12.6715 10.6419Z" fill="#FFB97D"/>
<path d="M12.6715 10.7284C12.6715 10.7988 12.5401 10.8557 12.3779 10.8557C12.2158 10.8557 12.0844 10.7988 12.0844 10.7284C12.0844 10.7134 12.0903 10.6988 12.1015 10.6852C12.1423 10.7343 12.2507 10.7692 12.3779 10.7692C12.5052 10.7692 12.6136 10.7343 12.6544 10.6852C12.6656 10.6988 12.6715 10.7134 12.6715 10.7284Z" fill="#E19E87"/>
<path d="M12.3779 10.8619V11.3068" stroke="white" stroke-width="0.05" stroke-miterlimit="10"/>
<path d="M2.9709 10.7012C2.9709 10.7218 2.95625 10.7413 2.93011 10.7594C2.84713 10.8159 2.64631 10.8557 2.41167 10.8557C2.17704 10.8557 1.97622 10.8159 1.89324 10.7594C1.86709 10.7413 1.85245 10.7218 1.85245 10.7012C1.85245 10.6161 2.10277 10.5471 2.41167 10.5471C2.72057 10.5471 2.9709 10.6161 2.9709 10.7012Z" fill="#FFB97D"/>
<path d="M2.9709 10.8173C2.9709 10.9024 2.72057 10.9714 2.41167 10.9714C2.10277 10.9714 1.85245 10.9024 1.85245 10.8173C1.85245 10.7967 1.86709 10.7772 1.89324 10.7594C1.97622 10.8159 2.17704 10.8557 2.41167 10.8557C2.64631 10.8557 2.84713 10.8159 2.93011 10.7594C2.95625 10.7772 2.9709 10.7967 2.9709 10.8173Z" fill="#E19E87"/>
<path d="M2.41168 10.9714V11.5675" stroke="white" stroke-width="0.05" stroke-miterlimit="10"/>
<path d="M14.4314 10.7012C14.4314 10.7218 14.4168 10.7413 14.3906 10.7594C14.3077 10.8159 14.1068 10.8557 13.8722 10.8557C13.6376 10.8557 13.4368 10.8159 13.3538 10.7594C13.3276 10.7413 13.313 10.7218 13.313 10.7012C13.313 10.6161 13.5633 10.5471 13.8722 10.5471C14.1811 10.5471 14.4314 10.6161 14.4314 10.7012Z" fill="#FFB97D"/>
<path d="M14.4314 10.8173C14.4314 10.9024 14.1811 10.9714 13.8722 10.9714C13.5633 10.9714 13.313 10.9024 13.313 10.8173C13.313 10.7967 13.3276 10.7772 13.3538 10.7594C13.4368 10.8159 13.6376 10.8557 13.8722 10.8557C14.1068 10.8557 14.3077 10.8159 14.3906 10.7594C14.4168 10.7772 14.4314 10.7967 14.4314 10.8173Z" fill="#E19E87"/>
<path d="M13.8722 10.9781V11.5742" stroke="white" stroke-width="0.05" stroke-miterlimit="10"/>
<path d="M2.8935 12.2026C2.8935 12.2026 2.81568 11.4684 3.14362 11.4684H12.616C12.7333 11.4684 13.075 11.3799 13.2142 11.9033C13.2577 12.0592 13.2636 12.1977 13.2636 12.1977C13.2636 12.1977 12.9701 12.2601 12.5963 12.2631C12.2225 12.2661 3.86292 12.2661 3.82186 12.2661C3.7808 12.2661 3.28816 12.261 3.11701 12.2369C2.94586 12.2127 2.8935 12.2026 2.8935 12.2026Z" fill="#FFB97D"/>
<path d="M5.16684 3.90222V3.90906L5.13657 3.91492C5.12875 3.91638 5.12094 3.92078 5.11606 3.9281C5.1102 3.93494 5.10727 3.94373 5.10727 3.95398V4.29041C5.10727 4.3407 5.08871 4.37976 5.05161 4.40662C5.0145 4.43347 4.96664 4.44666 4.90707 4.44666C4.86703 4.44666 4.83383 4.43982 4.80746 4.42615C4.78207 4.41248 4.76352 4.39539 4.7518 4.37537C4.74008 4.35486 4.73422 4.33533 4.73422 4.3158C4.73422 4.29529 4.73911 4.2782 4.74887 4.26404C4.75864 4.24988 4.77426 4.24255 4.79575 4.24255C4.80942 4.24255 4.82114 4.24646 4.83286 4.25427C4.8436 4.2616 4.84848 4.27087 4.84848 4.2821C4.83676 4.2821 4.82895 4.28699 4.82309 4.29675C4.81723 4.30652 4.8143 4.31775 4.8143 4.33093C4.8143 4.3446 4.81723 4.35925 4.82407 4.37488C4.82993 4.3905 4.83969 4.40369 4.85434 4.41492C4.86801 4.42615 4.88559 4.43152 4.90805 4.43152C4.94418 4.43152 4.97153 4.41882 4.98911 4.39392C5.00668 4.36853 5.01547 4.33435 5.01547 4.29041V3.95398C5.01547 3.94373 5.01254 3.93494 5.00668 3.9281C5.00082 3.92078 4.99301 3.91638 4.98325 3.91443L4.9559 3.90906V3.90222H5.16684Z" fill="white"/>
<path d="M5.57407 4.39099C5.55356 4.40906 5.53012 4.42273 5.50473 4.4325C5.47836 4.44226 5.452 4.44666 5.42465 4.44666C5.39145 4.44666 5.35922 4.43933 5.32797 4.42419C5.2977 4.40955 5.27133 4.38904 5.25082 4.36316C5.21176 4.31482 5.19223 4.25525 5.19223 4.18494C5.19223 4.17664 5.19321 4.16443 5.19418 4.14832C5.202 4.06091 5.23325 3.99353 5.28793 3.94617C5.30746 3.92859 5.3309 3.91492 5.35629 3.90515C5.38168 3.89539 5.40805 3.8905 5.43539 3.8905C5.46957 3.8905 5.5018 3.89783 5.53207 3.91296C5.56332 3.9281 5.58871 3.94861 5.6102 3.97449C5.64828 4.02234 5.66782 4.08142 5.66782 4.15271C5.66782 4.16101 5.66684 4.17322 5.66586 4.18933C5.65805 4.27625 5.62778 4.34363 5.57407 4.39099ZM5.5018 3.95007C5.47641 3.91833 5.44711 3.90271 5.41391 3.90271C5.39633 3.90271 5.37973 3.90759 5.36411 3.91736C5.3475 3.92712 5.33383 3.94275 5.32114 3.96521C5.30258 4.00037 5.29282 4.04968 5.29282 4.11365C5.29282 4.13708 5.29379 4.15955 5.29672 4.18005C5.30453 4.2782 5.32602 4.34705 5.35922 4.38757C5.38364 4.41882 5.41293 4.43445 5.44614 4.43445C5.46274 4.43445 5.47934 4.42957 5.49594 4.4198C5.51254 4.41003 5.52719 4.39392 5.53891 4.37195C5.55844 4.3363 5.56723 4.28601 5.56723 4.22205C5.56723 4.1991 5.56625 4.17761 5.5643 4.1571C5.55551 4.05994 5.535 3.9906 5.5018 3.95007Z" fill="white"/>
<path d="M6.14438 3.93347C6.13852 3.94031 6.13657 3.94812 6.13657 3.95691V4.28308C6.13657 4.39246 6.07602 4.44666 5.95395 4.44666C5.88559 4.44666 5.83286 4.4325 5.79477 4.4032C5.75571 4.37439 5.73715 4.33435 5.73715 4.28308V3.95398C5.73715 3.94373 5.73422 3.93494 5.72836 3.9281C5.72153 3.92078 5.71371 3.91638 5.70395 3.91443L5.67758 3.90906V3.90222H5.88852V3.90906L5.86215 3.91443C5.85239 3.91638 5.84457 3.92078 5.83871 3.9281C5.83286 3.93494 5.82895 3.94373 5.82895 3.95398V4.28308C5.82895 4.32996 5.84164 4.36609 5.86508 4.39246C5.88852 4.41833 5.92172 4.43152 5.96469 4.43152C6.00864 4.43152 6.04379 4.4198 6.06918 4.39587C6.08188 4.38367 6.09164 4.36804 6.09848 4.34851C6.10532 4.32947 6.10922 4.3075 6.10922 4.28308V3.9574C6.10922 3.9491 6.10629 3.94128 6.10141 3.93396C6.09653 3.92712 6.08969 3.92224 6.0809 3.91931L6.04379 3.90906V3.90222H6.20004V3.90906L6.16489 3.91931C6.1561 3.92224 6.14926 3.92664 6.14438 3.93347Z" fill="white"/>
<path d="M6.39828 3.90222C6.4393 3.90222 6.47641 3.90564 6.50766 3.91248C6.53989 3.9198 6.56625 3.92957 6.58774 3.94177C6.62875 3.96667 6.64926 3.99792 6.64926 4.03552C6.64926 4.06091 6.6395 4.08386 6.61899 4.10486C6.60727 4.11755 6.58383 4.13025 6.55063 4.14294C6.52231 4.15222 6.49008 4.15857 6.45297 4.16101C6.48715 4.16394 6.51547 4.16833 6.53793 4.17371C6.55942 4.17908 6.57895 4.18884 6.59457 4.20251C6.61118 4.21667 6.62094 4.23718 6.62485 4.26404L6.64536 4.39734C6.64731 4.41492 6.65414 4.42419 6.66586 4.42419C6.67368 4.42419 6.68246 4.41785 6.69223 4.40515L6.70883 4.41248C6.702 4.42322 6.69223 4.43152 6.67758 4.43787C6.66196 4.44373 6.64731 4.44666 6.63168 4.44666C6.60727 4.44666 6.58774 4.43933 6.57211 4.42419C6.55649 4.40955 6.54672 4.38806 6.54282 4.36072L6.52817 4.26404C6.52231 4.22693 6.50961 4.20154 6.49008 4.18835C6.46957 4.17517 6.4393 4.16882 6.39828 4.16882H6.36215V4.38367C6.36215 4.39392 6.36508 4.40222 6.37192 4.40955C6.37778 4.41687 6.38559 4.42126 6.39536 4.42322L6.42172 4.42859V4.43542H6.21176V4.42859L6.23813 4.42322C6.24789 4.42126 6.25571 4.41687 6.26157 4.40955C6.26743 4.40222 6.27133 4.39392 6.27133 4.38367V3.95398C6.27133 3.94373 6.26743 3.93494 6.26157 3.9281C6.25571 3.92078 6.24789 3.91638 6.23813 3.91443L6.21176 3.90906V3.90222H6.39828ZM6.50961 3.94714C6.48422 3.92712 6.44711 3.91736 6.39828 3.91736H6.36215V4.15369H6.39828C6.44711 4.15369 6.48422 4.14343 6.50961 4.12341C6.535 4.10339 6.54868 4.0741 6.54868 4.03552C6.54868 3.99695 6.535 3.96765 6.50961 3.94714Z" fill="white"/>
<path d="M7.12094 3.95691C7.12094 3.94812 7.11899 3.94031 7.11411 3.93347C7.10825 3.92664 7.10141 3.92224 7.09262 3.91931L7.05746 3.90906V3.90222H7.21371V3.90906L7.17661 3.91931C7.16782 3.92224 7.16098 3.92712 7.1561 3.93396C7.15121 3.94128 7.14828 3.9491 7.14828 3.9574V4.44324H7.12778L6.7977 3.97644V4.38074C6.7977 4.38904 6.79965 4.39685 6.80453 4.40369C6.81039 4.41052 6.81723 4.41541 6.82602 4.41785L6.86118 4.42859V4.43542H6.70493V4.42859L6.74203 4.41785C6.75082 4.41541 6.75766 4.41052 6.76254 4.4032C6.76743 4.39636 6.77036 4.38855 6.77036 4.37976V3.95593C6.77036 3.94666 6.76743 3.93835 6.76157 3.93152C6.75571 3.92468 6.74887 3.9198 6.73911 3.91736L6.70493 3.90906V3.90222H6.84653L7.12094 4.29236V3.95691Z" fill="white"/>
<path d="M7.66293 4.34607C7.65903 4.35876 7.65707 4.37292 7.65707 4.38757C7.65707 4.39978 7.65805 4.40955 7.66196 4.41736C7.66489 4.42468 7.66879 4.42859 7.67563 4.42859V4.43542H7.24496V4.42859L7.27133 4.42322C7.2811 4.42126 7.28891 4.41687 7.29477 4.40955C7.30063 4.40222 7.30453 4.39392 7.30453 4.38367V3.95398C7.30453 3.94373 7.30063 3.93494 7.29477 3.9281C7.28891 3.92078 7.2811 3.91638 7.27133 3.91443L7.24496 3.90906V3.90222H7.67563V3.90906C7.66879 3.90906 7.66489 3.91248 7.66196 3.92029C7.65805 3.9281 7.65707 3.93787 7.65707 3.95007C7.65707 3.96472 7.65903 3.97839 7.66293 3.99158C7.66684 4.00427 7.67172 4.01111 7.67758 4.01111C7.66782 4.01794 7.65805 4.02185 7.64926 4.02185C7.63852 4.02185 7.62875 4.01648 7.62192 4.00671C7.61508 3.99695 7.60727 3.98181 7.59946 3.9613C7.5936 3.94666 7.58871 3.93542 7.58383 3.9281C7.57895 3.92078 7.57309 3.91736 7.56723 3.91736H7.42563C7.41684 3.91736 7.41 3.92126 7.40414 3.92908C7.39828 3.93689 7.39536 3.94617 7.39536 3.95593V4.14587H7.41098C7.43442 4.14587 7.45688 4.1405 7.47836 4.12927C7.49887 4.11853 7.51645 4.10388 7.53012 4.08484L7.535 4.07703H7.54379V4.22986H7.535L7.53012 4.22205C7.51645 4.20349 7.49887 4.18835 7.47836 4.17761C7.45688 4.16638 7.43442 4.16101 7.41098 4.16101H7.39536V4.37732C7.39536 4.38953 7.39926 4.39978 7.40805 4.40808C7.41586 4.41589 7.42563 4.42029 7.43832 4.42029H7.56723C7.57309 4.42029 7.57895 4.41638 7.58383 4.40906C7.58871 4.40173 7.5936 4.3905 7.59946 4.37585C7.60727 4.35583 7.61508 4.3407 7.62192 4.33044C7.62875 4.32068 7.63852 4.3158 7.64926 4.3158C7.65805 4.3158 7.66782 4.31921 7.67758 4.32654C7.67172 4.32654 7.66684 4.33289 7.66293 4.34607Z" fill="white"/>
<path d="M8.14731 3.93787C8.13754 3.94812 8.12875 3.96082 8.12094 3.97644L7.99692 4.22205V4.38367C7.99692 4.39392 7.99985 4.40222 8.00668 4.40955C8.01254 4.41687 8.02036 4.42126 8.03012 4.42322L8.05649 4.42859V4.43542H7.84555V4.42859L7.87192 4.42322C7.88168 4.42126 7.8895 4.41687 7.89536 4.40955C7.90219 4.40222 7.90512 4.39392 7.90512 4.38367V4.22595L7.7811 3.97839C7.77133 3.95935 7.75961 3.94421 7.74399 3.9325C7.72836 3.92078 7.71078 3.91296 7.69125 3.90906V3.90222H7.90805V3.90906C7.89633 3.91101 7.88657 3.91589 7.87973 3.92419C7.87289 3.93201 7.86996 3.94177 7.86996 3.95251C7.86996 3.95886 7.87192 3.96667 7.87582 3.97595L7.9852 4.19226L8.0936 3.97644C8.0975 3.9696 8.09946 3.96179 8.09946 3.95398C8.09946 3.94421 8.09653 3.93542 8.09067 3.9281C8.08481 3.92078 8.077 3.91589 8.06625 3.91248L8.05356 3.90906V3.90222H8.20981V3.90906L8.17758 3.91785C8.16782 3.92126 8.15707 3.92761 8.14731 3.93787Z" fill="white"/>
<path d="M8.8309 3.92029C8.82797 3.9281 8.82602 3.93787 8.82602 3.95007C8.82602 3.96472 8.82797 3.97839 8.83286 3.99158C8.83676 4.00427 8.84164 4.01111 8.84653 4.01111C8.83676 4.01794 8.827 4.02185 8.81918 4.02185C8.80746 4.02185 8.79868 4.01648 8.79184 4.00671C8.785 3.99695 8.77719 3.98181 8.7684 3.9613C8.76254 3.94666 8.75766 3.93542 8.75278 3.9281C8.74789 3.92078 8.74301 3.91736 8.73618 3.91736H8.61215V4.38367C8.61215 4.39392 8.61508 4.40222 8.62094 4.40955C8.62778 4.41687 8.63559 4.42126 8.64536 4.42322L8.67172 4.42859V4.43542H8.46176V4.42859L8.48813 4.42322C8.49789 4.42126 8.50571 4.41687 8.51157 4.40955C8.51743 4.40222 8.52036 4.39392 8.52036 4.38367V3.91736H8.39633C8.39047 3.91736 8.38461 3.92078 8.38071 3.9281C8.37582 3.93542 8.36996 3.94666 8.36508 3.9613C8.35629 3.98181 8.34848 3.99695 8.34164 4.00671C8.33481 4.01648 8.32504 4.02185 8.3143 4.02185C8.30551 4.02185 8.29672 4.01794 8.28598 4.01111C8.29184 4.01111 8.29672 4.00427 8.30063 3.99158C8.30453 3.97839 8.30649 3.96472 8.30649 3.95007C8.30649 3.93787 8.30551 3.9281 8.30258 3.92029C8.29868 3.91248 8.29477 3.90906 8.28793 3.90906V3.90222H8.84457V3.90906C8.83871 3.90906 8.83383 3.91248 8.8309 3.92029Z" fill="white"/>
<path d="M9.04477 3.9281C9.03891 3.93494 9.03598 3.94373 9.03598 3.95398V4.38367C9.03598 4.39392 9.03891 4.40222 9.04575 4.40955C9.05161 4.41687 9.05942 4.42126 9.06918 4.42322L9.09555 4.42859V4.43542H8.88559V4.42859L8.91196 4.42322C8.92172 4.42126 8.92953 4.41687 8.93539 4.40955C8.94125 4.40222 8.94516 4.39392 8.94516 4.38367V3.95398C8.94516 3.94373 8.94125 3.93494 8.93539 3.9281C8.92953 3.92078 8.92172 3.91638 8.91196 3.91443L8.88559 3.90906V3.90222H9.09555V3.90906L9.06625 3.91492C9.05746 3.91638 9.05063 3.92078 9.04477 3.9281Z" fill="white"/>
<path d="M9.56039 4.29041C9.55649 4.33484 9.53598 4.37195 9.49985 4.40271C9.48325 4.41638 9.46469 4.42712 9.44223 4.43494C9.42075 4.44275 9.39828 4.44666 9.37387 4.44666C9.34067 4.44666 9.30942 4.4408 9.28012 4.42908C9.25082 4.41687 9.22543 4.39978 9.20297 4.37732C9.15219 4.32556 9.1268 4.25623 9.1268 4.16882C9.1268 4.08093 9.15219 4.01111 9.20297 3.95935C9.22348 3.93738 9.24789 3.92029 9.27719 3.90857C9.30551 3.89636 9.33481 3.8905 9.36606 3.8905C9.41 3.8905 9.44614 3.89783 9.47446 3.91248C9.50278 3.92761 9.52231 3.9447 9.535 3.96521C9.5477 3.98572 9.55356 4.00427 9.55356 4.02185C9.55356 4.03845 9.54868 4.05408 9.53793 4.06921C9.52817 4.08435 9.51254 4.09167 9.49106 4.09167C9.47836 4.09167 9.46762 4.08777 9.45786 4.07947C9.44711 4.07166 9.44223 4.06238 9.44223 4.0531C9.452 4.05066 9.45883 4.04578 9.46469 4.03796C9.47055 4.03015 9.47348 4.02234 9.47348 4.01404C9.47348 3.98767 9.46664 3.96277 9.452 3.94031C9.43832 3.91736 9.41293 3.90564 9.37387 3.90564C9.33286 3.90564 9.29965 3.92371 9.27524 3.95984C9.24399 4.00476 9.22934 4.0741 9.22934 4.16882C9.22934 4.26453 9.24496 4.33386 9.27524 4.37683C9.28891 4.39539 9.30453 4.40955 9.32211 4.41833C9.33969 4.42712 9.3602 4.43152 9.38364 4.43152C9.40024 4.43152 9.41684 4.4281 9.43442 4.42078C9.45102 4.41394 9.46762 4.40417 9.48325 4.39099C9.49789 4.37927 9.50961 4.36414 9.52036 4.34656C9.53012 4.32898 9.53598 4.31042 9.53891 4.29041H9.56039Z" fill="white"/>
<path d="M9.7225 4.23669V4.38367C9.7225 4.39392 9.72543 4.40222 9.73227 4.40955C9.73813 4.41687 9.74594 4.42126 9.75571 4.42322L9.78207 4.42859V4.43542H9.57211V4.42859L9.59848 4.42322C9.60825 4.42126 9.61606 4.41687 9.62192 4.40955C9.62778 4.40222 9.63168 4.39392 9.63168 4.38367V3.95398C9.63168 3.94373 9.62778 3.93494 9.62192 3.9281C9.61606 3.92078 9.60825 3.91638 9.59848 3.91443L9.57211 3.90906V3.90222H9.78207V3.90906L9.75571 3.91443C9.74594 3.91638 9.73813 3.92078 9.73227 3.9281C9.72543 3.93494 9.7225 3.94373 9.7225 3.95398V4.20154L9.88754 3.98425C9.89536 3.97351 9.89828 3.96277 9.89828 3.95251C9.89828 3.94226 9.89536 3.93298 9.8895 3.92517C9.88266 3.91736 9.87485 3.91199 9.86411 3.90906V3.90222H10.0204V3.90906L9.99496 3.91638C9.9686 3.92419 9.94711 3.93835 9.93149 3.95984L9.82993 4.09412L9.99985 4.36902C10.0096 4.38464 10.0223 4.39783 10.036 4.40759C10.0506 4.41736 10.0672 4.42419 10.0848 4.42761L10.0897 4.42859V4.43542H9.86899V4.42859C9.87875 4.42664 9.88754 4.42175 9.89243 4.41443C9.89828 4.4071 9.90121 4.39832 9.90121 4.38806C9.90121 4.37781 9.89828 4.36755 9.89145 4.35681L9.77426 4.16736L9.7225 4.23669Z" fill="white"/>
<path d="M10.4793 4.34607C10.4754 4.35876 10.4735 4.37292 10.4735 4.38757C10.4735 4.39978 10.4745 4.40955 10.4784 4.41736C10.4813 4.42468 10.4852 4.42859 10.492 4.42859V4.43542H10.0614V4.42859L10.0877 4.42322C10.0975 4.42126 10.1053 4.41687 10.1112 4.40955C10.117 4.40222 10.1209 4.39392 10.1209 4.38367V3.95398C10.1209 3.94373 10.117 3.93494 10.1112 3.9281C10.1053 3.92078 10.0975 3.91638 10.0877 3.91443L10.0614 3.90906V3.90222H10.492V3.90906C10.4852 3.90906 10.4813 3.91248 10.4784 3.92029C10.4745 3.9281 10.4735 3.93787 10.4735 3.95007C10.4735 3.96472 10.4754 3.97839 10.4793 3.99158C10.4832 4.00427 10.4881 4.01111 10.494 4.01111C10.4842 4.01794 10.4745 4.02185 10.4657 4.02185C10.4549 4.02185 10.4452 4.01648 10.4383 4.00671C10.4315 3.99695 10.4237 3.98181 10.4159 3.9613C10.41 3.94666 10.4051 3.93542 10.4002 3.9281C10.3954 3.92078 10.3895 3.91736 10.3836 3.91736H10.242C10.2332 3.91736 10.2264 3.92126 10.2206 3.92908C10.2147 3.93689 10.2118 3.94617 10.2118 3.95593V4.14587H10.2274C10.2508 4.14587 10.2733 4.1405 10.2948 4.12927C10.3153 4.11853 10.3329 4.10388 10.3465 4.08484L10.3514 4.07703H10.3602V4.22986H10.3514L10.3465 4.22205C10.3329 4.20349 10.3153 4.18835 10.2948 4.17761C10.2733 4.16638 10.2508 4.16101 10.2274 4.16101H10.2118V4.37732C10.2118 4.38953 10.2157 4.39978 10.2245 4.40808C10.2323 4.41589 10.242 4.42029 10.2547 4.42029H10.3836C10.3895 4.42029 10.3954 4.41638 10.4002 4.40906C10.4051 4.40173 10.41 4.3905 10.4159 4.37585C10.4237 4.35583 10.4315 4.3407 10.4383 4.33044C10.4452 4.32068 10.4549 4.3158 10.4657 4.3158C10.4745 4.3158 10.4842 4.31921 10.494 4.32654C10.4881 4.32654 10.4832 4.33289 10.4793 4.34607Z" fill="white"/>
<path d="M11.0594 3.92029C11.0565 3.9281 11.0545 3.93787 11.0545 3.95007C11.0545 3.96472 11.0565 3.97839 11.0614 3.99158C11.0653 4.00427 11.0702 4.01111 11.075 4.01111C11.0653 4.01794 11.0555 4.02185 11.0477 4.02185C11.036 4.02185 11.0272 4.01648 11.0204 4.00671C11.0135 3.99695 11.0057 3.98181 10.9969 3.9613C10.9911 3.94666 10.9862 3.93542 10.9813 3.9281C10.9764 3.92078 10.9715 3.91736 10.9647 3.91736H10.8407V4.38367C10.8407 4.39392 10.8436 4.40222 10.8495 4.40955C10.8563 4.41687 10.8641 4.42126 10.8739 4.42322L10.9002 4.42859V4.43542H10.6903V4.42859L10.7166 4.42322C10.7264 4.42126 10.7342 4.41687 10.7401 4.40955C10.7459 4.40222 10.7489 4.39392 10.7489 4.38367V3.91736H10.6248C10.619 3.91736 10.6131 3.92078 10.6092 3.9281C10.6043 3.93542 10.5985 3.94666 10.5936 3.9613C10.5848 3.98181 10.577 3.99695 10.5702 4.00671C10.5633 4.01648 10.5536 4.02185 10.5428 4.02185C10.534 4.02185 10.5252 4.01794 10.5145 4.01111C10.5204 4.01111 10.5252 4.00427 10.5291 3.99158C10.5331 3.97839 10.535 3.96472 10.535 3.95007C10.535 3.93787 10.534 3.9281 10.5311 3.92029C10.5272 3.91248 10.5233 3.90906 10.5164 3.90906V3.90222H11.0731V3.90906C11.0672 3.90906 11.0623 3.91248 11.0594 3.92029Z" fill="white"/>
<path d="M2.73552 6.16273C2.78849 6.16273 2.83143 6.11979 2.83143 6.06682C2.83143 6.01386 2.78849 5.97092 2.73552 5.97092C2.68256 5.97092 2.63962 6.01386 2.63962 6.06682C2.63962 6.11979 2.68256 6.16273 2.73552 6.16273Z" fill="#7CBCE8" stroke="white" stroke-width="0.05" stroke-miterlimit="10"/>
<path d="M2.73976 5.98732C2.76928 5.98732 2.79322 5.92856 2.79322 5.85607C2.79322 5.78359 2.76928 5.72482 2.73976 5.72482C2.71024 5.72482 2.68631 5.78359 2.68631 5.85607C2.68631 5.92856 2.71024 5.98732 2.73976 5.98732Z" fill="#FFD392"/>
<path d="M2.73552 6.40843C2.76504 6.40843 2.78897 6.34967 2.78897 6.27718C2.78897 6.2047 2.76504 6.14594 2.73552 6.14594C2.706 6.14594 2.68207 6.2047 2.68207 6.27718C2.68207 6.34967 2.706 6.40843 2.73552 6.40843Z" fill="#FFD392"/>
<path d="M2.94399 6.13967C3.01648 6.13967 3.07524 6.11574 3.07524 6.08621C3.07524 6.05669 3.01648 6.03276 2.94399 6.03276C2.87151 6.03276 2.81274 6.05669 2.81274 6.08621C2.81274 6.11574 2.87151 6.13967 2.94399 6.13967Z" fill="#FFD392"/>
<path d="M2.52843 6.13541C2.60092 6.13541 2.65968 6.11148 2.65968 6.08196C2.65968 6.05244 2.60092 6.0285 2.52843 6.0285C2.45595 6.0285 2.39719 6.05244 2.39719 6.08196C2.39719 6.11148 2.45595 6.13541 2.52843 6.13541Z" fill="#FFD392"/>
<path d="M2.93235 5.97011C2.9836 5.91885 3.00823 5.86038 2.98736 5.8395C2.96648 5.81863 2.90801 5.84326 2.85675 5.89451C2.8055 5.94577 2.78087 6.00424 2.80174 6.02512C2.82262 6.04599 2.88109 6.02136 2.93235 5.97011Z" fill="#FFD392"/>
<path d="M2.63379 6.26263C2.68505 6.21138 2.70968 6.1529 2.6888 6.13203C2.66793 6.11115 2.60946 6.13578 2.5582 6.18704C2.50694 6.2383 2.48232 6.29677 2.50319 6.31764C2.52407 6.33852 2.58254 6.31389 2.63379 6.26263Z" fill="#FFD392"/>
<path d="M2.67464 6.01682C2.69552 5.99594 2.67089 5.93747 2.61963 5.88622C2.56838 5.83496 2.50991 5.81033 2.48903 5.83121C2.46816 5.85208 2.49278 5.91055 2.54404 5.96181C2.5953 6.01307 2.65377 6.03769 2.67464 6.01682Z" fill="#FFD392"/>
<path d="M2.96761 6.31495C2.98849 6.29407 2.96386 6.2356 2.9126 6.18434C2.86135 6.13309 2.80287 6.10846 2.782 6.12933C2.76112 6.15021 2.78575 6.20868 2.83701 6.25994C2.88826 6.31119 2.94674 6.33582 2.96761 6.31495Z" fill="#FFD392"/>
<path d="M3.79635 6.93089C3.84931 6.93089 3.89225 6.88795 3.89225 6.83498C3.89225 6.78201 3.84931 6.73907 3.79635 6.73907C3.74338 6.73907 3.70044 6.78201 3.70044 6.83498C3.70044 6.88795 3.74338 6.93089 3.79635 6.93089Z" fill="#7CBCE8" stroke="white" stroke-width="0.05" stroke-miterlimit="10"/>
<path d="M3.80058 6.75548C3.83011 6.75548 3.85404 6.69672 3.85404 6.62423C3.85404 6.55174 3.83011 6.49298 3.80058 6.49298C3.77106 6.49298 3.74713 6.55174 3.74713 6.62423C3.74713 6.69672 3.77106 6.75548 3.80058 6.75548Z" fill="#FFD392"/>
<path d="M3.79634 7.17659C3.82586 7.17659 3.8498 7.11783 3.8498 7.04534C3.8498 6.97286 3.82586 6.91409 3.79634 6.91409C3.76682 6.91409 3.74289 6.97286 3.74289 7.04534C3.74289 7.11783 3.76682 7.17659 3.79634 7.17659Z" fill="#FFD392"/>
<path d="M4.00481 6.90782C4.0773 6.90782 4.13606 6.88389 4.13606 6.85437C4.13606 6.82485 4.0773 6.80092 4.00481 6.80092C3.93233 6.80092 3.87357 6.82485 3.87357 6.85437C3.87357 6.88389 3.93233 6.90782 4.00481 6.90782Z" fill="#FFD392"/>
<path d="M3.58926 6.90357C3.66174 6.90357 3.72051 6.87964 3.72051 6.85011C3.72051 6.82059 3.66174 6.79666 3.58926 6.79666C3.51677 6.79666 3.45801 6.82059 3.45801 6.85011C3.45801 6.87964 3.51677 6.90357 3.58926 6.90357Z" fill="#FFD392"/>
<path d="M3.99317 6.73827C4.04443 6.68701 4.06905 6.62854 4.04818 6.60766C4.0273 6.58679 3.96883 6.61142 3.91757 6.66267C3.86632 6.71393 3.84169 6.7724 3.86257 6.79328C3.88344 6.81415 3.94191 6.78952 3.99317 6.73827Z" fill="#FFD392"/>
<path d="M3.69462 7.03079C3.74587 6.97954 3.7705 6.92106 3.74963 6.90019C3.72875 6.87931 3.67028 6.90394 3.61902 6.9552C3.56777 7.00645 3.54314 7.06493 3.56401 7.0858C3.58489 7.10668 3.64336 7.08205 3.69462 7.03079Z" fill="#FFD392"/>
<path d="M3.73543 6.78498C3.75631 6.7641 3.73168 6.70563 3.68043 6.65437C3.62917 6.60312 3.5707 6.57849 3.54982 6.59936C3.52895 6.62024 3.55358 6.67871 3.60483 6.72997C3.65609 6.78122 3.71456 6.80585 3.73543 6.78498Z" fill="#FFD392"/>
<path d="M4.02843 7.0831C4.04931 7.06223 4.02468 7.00376 3.97342 6.9525C3.92217 6.90124 3.8637 6.87662 3.84282 6.89749C3.82195 6.91837 3.84657 6.97684 3.89783 7.02809C3.94909 7.07935 4.00756 7.10398 4.02843 7.0831Z" fill="#FFD392"/>
<path d="M5.28121 6.50453C5.33418 6.50453 5.37711 6.46159 5.37711 6.40862C5.37711 6.35565 5.33418 6.31271 5.28121 6.31271C5.22824 6.31271 5.1853 6.35565 5.1853 6.40862C5.1853 6.46159 5.22824 6.50453 5.28121 6.50453Z" fill="#7CBCE8" stroke="white" stroke-width="0.05" stroke-miterlimit="10"/>
<path d="M5.28545 6.32912C5.31497 6.32912 5.3389 6.27036 5.3389 6.19787C5.3389 6.12538 5.31497 6.06662 5.28545 6.06662C5.25593 6.06662 5.23199 6.12538 5.23199 6.19787C5.23199 6.27036 5.25593 6.32912 5.28545 6.32912Z" fill="#FFD392"/>
<path d="M5.28121 6.75023C5.31073 6.75023 5.33466 6.69147 5.33466 6.61898C5.33466 6.54649 5.31073 6.48773 5.28121 6.48773C5.25168 6.48773 5.22775 6.54649 5.22775 6.61898C5.22775 6.69147 5.25168 6.75023 5.28121 6.75023Z" fill="#FFD392"/>
<path d="M5.48968 6.48146C5.56216 6.48146 5.62093 6.45753 5.62093 6.42801C5.62093 6.39849 5.56216 6.37456 5.48968 6.37456C5.41719 6.37456 5.35843 6.39849 5.35843 6.42801C5.35843 6.45753 5.41719 6.48146 5.48968 6.48146Z" fill="#FFD392"/>
<path d="M5.07412 6.47721C5.14661 6.47721 5.20537 6.45328 5.20537 6.42375C5.20537 6.39423 5.14661 6.3703 5.07412 6.3703C5.00163 6.3703 4.94287 6.39423 4.94287 6.42375C4.94287 6.45328 5.00163 6.47721 5.07412 6.47721Z" fill="#FFD392"/>
<path d="M5.47803 6.3119C5.52929 6.26065 5.55392 6.20218 5.53304 6.1813C5.51217 6.16043 5.45369 6.18505 5.40244 6.23631C5.35118 6.28757 5.32655 6.34604 5.34743 6.36691C5.3683 6.38779 5.42678 6.36316 5.47803 6.3119Z" fill="#FFD392"/>
<path d="M5.17948 6.60443C5.23073 6.55318 5.25536 6.4947 5.23449 6.47383C5.21361 6.45295 5.15514 6.47758 5.10388 6.52884C5.05263 6.58009 5.028 6.63857 5.04888 6.65944C5.06975 6.68032 5.12822 6.65569 5.17948 6.60443Z" fill="#FFD392"/>
<path d="M5.2203 6.35862C5.24117 6.33774 5.21654 6.27927 5.16529 6.22801C5.11403 6.17676 5.05556 6.15213 5.03468 6.173C5.01381 6.19388 5.03844 6.25235 5.08969 6.30361C5.14095 6.35486 5.19942 6.37949 5.2203 6.35862Z" fill="#FFD392"/>
<path d="M5.5133 6.65674C5.53417 6.63587 5.50954 6.57739 5.45829 6.52614C5.40703 6.47488 5.34856 6.45025 5.32768 6.47113C5.30681 6.492 5.33144 6.55048 5.38269 6.60173C5.43395 6.65299 5.49242 6.67762 5.5133 6.65674Z" fill="#FFD392"/>
<path d="M6.9923 6.24203C7.04527 6.24203 7.0882 6.19909 7.0882 6.14612C7.0882 6.09316 7.04527 6.05022 6.9923 6.05022C6.93933 6.05022 6.89639 6.09316 6.89639 6.14612C6.89639 6.19909 6.93933 6.24203 6.9923 6.24203Z" fill="#7CBCE8" stroke="white" stroke-width="0.05" stroke-miterlimit="10"/>
<path d="M6.99654 6.06662C7.02606 6.06662 7.04999 6.00786 7.04999 5.93537C7.04999 5.86288 7.02606 5.80412 6.99654 5.80412C6.96702 5.80412 6.94308 5.86288 6.94308 5.93537C6.94308 6.00786 6.96702 6.06662 6.99654 6.06662Z" fill="#FFD392"/>
<path d="M6.9923 6.48773C7.02182 6.48773 7.04575 6.42897 7.04575 6.35648C7.04575 6.284 7.02182 6.22523 6.9923 6.22523C6.96277 6.22523 6.93884 6.284 6.93884 6.35648C6.93884 6.42897 6.96277 6.48773 6.9923 6.48773Z" fill="#FFD392"/>
<path d="M7.20077 6.21897C7.27325 6.21897 7.33202 6.19504 7.33202 6.16551C7.33202 6.13599 7.27325 6.11206 7.20077 6.11206C7.12828 6.11206 7.06952 6.13599 7.06952 6.16551C7.06952 6.19504 7.12828 6.21897 7.20077 6.21897Z" fill="#FFD392"/>
<path d="M6.78521 6.21471C6.8577 6.21471 6.91646 6.19078 6.91646 6.16126C6.91646 6.13174 6.8577 6.1078 6.78521 6.1078C6.71272 6.1078 6.65396 6.13174 6.65396 6.16126C6.65396 6.19078 6.71272 6.21471 6.78521 6.21471Z" fill="#FFD392"/>
<path d="M7.18912 6.04941C7.24038 5.99815 7.26501 5.93968 7.24413 5.9188C7.22326 5.89793 7.16478 5.92256 7.11353 5.97381C7.06227 6.02507 7.03764 6.08354 7.05852 6.10442C7.07939 6.12529 7.13787 6.10066 7.18912 6.04941Z" fill="#FFD392"/>
<path d="M6.89057 6.34193C6.94183 6.29068 6.96645 6.2322 6.94558 6.21133C6.9247 6.19045 6.86623 6.21508 6.81497 6.26634C6.76372 6.3176 6.73909 6.37607 6.75997 6.39694C6.78084 6.41782 6.83931 6.39319 6.89057 6.34193Z" fill="#FFD392"/>
<path d="M6.93139 6.09612C6.95226 6.07524 6.92763 6.01677 6.87638 5.96552C6.82512 5.91426 6.76665 5.88963 6.74577 5.91051C6.7249 5.93138 6.74953 5.98985 6.80078 6.04111C6.85204 6.09237 6.91051 6.11699 6.93139 6.09612Z" fill="#FFD392"/>
<path d="M7.22439 6.39425C7.24526 6.37337 7.22063 6.3149 7.16938 6.26364C7.11812 6.21239 7.05965 6.18776 7.03877 6.20863C7.0179 6.22951 7.04253 6.28798 7.09378 6.33924C7.14504 6.39049 7.20351 6.41512 7.22439 6.39425Z" fill="#FFD392"/>
<path d="M8.21047 6.93107C8.26344 6.93107 8.30637 6.88813 8.30637 6.83516C8.30637 6.7822 8.26344 6.73926 8.21047 6.73926C8.1575 6.73926 8.11456 6.7822 8.11456 6.83516C8.11456 6.88813 8.1575 6.93107 8.21047 6.93107Z" fill="#7CBCE8" stroke="white" stroke-width="0.05" stroke-miterlimit="10"/>
<path d="M8.21471 6.75566C8.24423 6.75566 8.26816 6.6969 8.26816 6.62441C8.26816 6.55193 8.24423 6.49316 8.21471 6.49316C8.18519 6.49316 8.16125 6.55193 8.16125 6.62441C8.16125 6.6969 8.18519 6.75566 8.21471 6.75566Z" fill="#FFD392"/>
<path d="M8.21047 7.17677C8.23999 7.17677 8.26392 7.11801 8.26392 7.04552C8.26392 6.97304 8.23999 6.91428 8.21047 6.91428C8.18094 6.91428 8.15701 6.97304 8.15701 7.04552C8.15701 7.11801 8.18094 7.17677 8.21047 7.17677Z" fill="#FFD392"/>
<path d="M8.41894 6.90801C8.49142 6.90801 8.55019 6.88408 8.55019 6.85456C8.55019 6.82503 8.49142 6.8011 8.41894 6.8011C8.34645 6.8011 8.28769 6.82503 8.28769 6.85456C8.28769 6.88408 8.34645 6.90801 8.41894 6.90801Z" fill="#FFD392"/>
<path d="M8.00338 6.90375C8.07587 6.90375 8.13463 6.87982 8.13463 6.8503C8.13463 6.82078 8.07587 6.79684 8.00338 6.79684C7.93089 6.79684 7.87213 6.82078 7.87213 6.8503C7.87213 6.87982 7.93089 6.90375 8.00338 6.90375Z" fill="#FFD392"/>
<path d="M8.40729 6.73845C8.45855 6.68719 8.48318 6.62872 8.4623 6.60784C8.44143 6.58697 8.38295 6.6116 8.3317 6.66285C8.28044 6.71411 8.25581 6.77258 8.27669 6.79346C8.29756 6.81433 8.35604 6.7897 8.40729 6.73845Z" fill="#FFD392"/>
<path d="M8.10874 7.03098C8.15999 6.97972 8.18462 6.92125 8.16375 6.90037C8.14287 6.8795 8.0844 6.90413 8.03314 6.95538C7.98189 7.00664 7.95726 7.06511 7.97814 7.08598C7.99901 7.10686 8.05748 7.08223 8.10874 7.03098Z" fill="#FFD392"/>
<path d="M8.14956 6.78516C8.17043 6.76429 8.1458 6.70581 8.09455 6.65456C8.04329 6.6033 7.98482 6.57867 7.96394 6.59955C7.94307 6.62042 7.9677 6.6789 8.01895 6.73015C8.07021 6.78141 8.12868 6.80604 8.14956 6.78516Z" fill="#FFD392"/>
<path d="M8.44256 7.08329C8.46343 7.06241 8.4388 7.00394 8.38755 6.95268C8.33629 6.90143 8.27782 6.8768 8.25694 6.89767C8.23607 6.91855 8.2607 6.97702 8.31195 7.02828C8.36321 7.07953 8.42168 7.10416 8.44256 7.08329Z" fill="#FFD392"/>
<path d="M9.81423 7.02717C9.8672 7.02717 9.91013 6.98423 9.91013 6.93126C9.91013 6.8783 9.8672 6.83536 9.81423 6.83536C9.76126 6.83536 9.71832 6.8783 9.71832 6.93126C9.71832 6.98423 9.76126 7.02717 9.81423 7.02717Z" fill="#7CBCE8" stroke="white" stroke-width="0.05" stroke-miterlimit="10"/>
<path d="M9.81847 6.85176C9.84799 6.85176 9.87192 6.793 9.87192 6.72051C9.87192 6.64803 9.84799 6.58926 9.81847 6.58926C9.78895 6.58926 9.76501 6.64803 9.76501 6.72051C9.76501 6.793 9.78895 6.85176 9.81847 6.85176Z" fill="#FFD392"/>
<path d="M9.81423 7.27287C9.84375 7.27287 9.86768 7.21411 9.86768 7.14162C9.86768 7.06914 9.84375 7.01038 9.81423 7.01038C9.7847 7.01038 9.76077 7.06914 9.76077 7.14162C9.76077 7.21411 9.7847 7.27287 9.81423 7.27287Z" fill="#FFD392"/>
<path d="M10.0227 7.00411C10.0952 7.00411 10.1539 6.98018 10.1539 6.95065C10.1539 6.92113 10.0952 6.8972 10.0227 6.8972C9.95021 6.8972 9.89145 6.92113 9.89145 6.95065C9.89145 6.98018 9.95021 7.00411 10.0227 7.00411Z" fill="#FFD392"/>
<path d="M9.60714 6.99985C9.67963 6.99985 9.73839 6.97592 9.73839 6.9464C9.73839 6.91688 9.67963 6.89294 9.60714 6.89294C9.53465 6.89294 9.47589 6.91688 9.47589 6.9464C9.47589 6.97592 9.53465 6.99985 9.60714 6.99985Z" fill="#FFD392"/>
<path d="M10.0111 6.83455C10.0623 6.78329 10.0869 6.72482 10.0661 6.70394C10.0452 6.68307 9.98671 6.7077 9.93546 6.75895C9.8842 6.81021 9.85957 6.86868 9.88045 6.88956C9.90132 6.91043 9.9598 6.8858 10.0111 6.83455Z" fill="#FFD392"/>
<path d="M9.7125 7.12708C9.76375 7.07582 9.78838 7.01735 9.76751 6.99647C9.74663 6.9756 9.68816 7.00022 9.6369 7.05148C9.58565 7.10274 9.56102 7.16121 9.5819 7.18208C9.60277 7.20296 9.66124 7.17833 9.7125 7.12708Z" fill="#FFD392"/>
<path d="M9.75332 6.88126C9.77419 6.86039 9.74956 6.80191 9.69831 6.75066C9.64705 6.6994 9.58858 6.67477 9.5677 6.69565C9.54683 6.71652 9.57146 6.775 9.62271 6.82625C9.67397 6.87751 9.73244 6.90214 9.75332 6.88126Z" fill="#FFD392"/>
<path d="M10.0463 7.17939C10.0672 7.15851 10.0426 7.10004 9.99131 7.04878C9.94005 6.99753 9.88158 6.9729 9.8607 6.99377C9.83983 7.01465 9.86446 7.07312 9.91571 7.12438C9.96697 7.17563 10.0254 7.20026 10.0463 7.17939Z" fill="#FFD392"/>
<path d="M11.0463 6.23914C11.0992 6.23914 11.1422 6.19621 11.1422 6.14324C11.1422 6.09027 11.0992 6.04733 11.0463 6.04733C10.9933 6.04733 10.9503 6.09027 10.9503 6.14324C10.9503 6.19621 10.9933 6.23914 11.0463 6.23914Z" fill="#7CBCE8" stroke="white" stroke-width="0.05" stroke-miterlimit="10"/>
<path d="M11.0505 6.06374C11.08 6.06374 11.1039 6.00497 11.1039 5.93249C11.1039 5.86 11.08 5.80124 11.0505 5.80124C11.021 5.80124 10.997 5.86 10.997 5.93249C10.997 6.00497 11.021 6.06374 11.0505 6.06374Z" fill="#FFD392"/>
<path d="M11.0463 6.48485C11.0758 6.48485 11.0997 6.42609 11.0997 6.3536C11.0997 6.28111 11.0758 6.22235 11.0463 6.22235C11.0167 6.22235 10.9928 6.28111 10.9928 6.3536C10.9928 6.42609 11.0167 6.48485 11.0463 6.48485Z" fill="#FFD392"/>
<path d="M11.2547 6.21608C11.3272 6.21608 11.386 6.19215 11.386 6.16263C11.386 6.13311 11.3272 6.10918 11.2547 6.10918C11.1822 6.10918 11.1235 6.13311 11.1235 6.16263C11.1235 6.19215 11.1822 6.21608 11.2547 6.21608Z" fill="#FFD392"/>
<path d="M10.8392 6.21183C10.9117 6.21183 10.9704 6.18789 10.9704 6.15837C10.9704 6.12885 10.9117 6.10492 10.8392 6.10492C10.7667 6.10492 10.7079 6.12885 10.7079 6.15837C10.7079 6.18789 10.7667 6.21183 10.8392 6.21183Z" fill="#FFD392"/>
<path d="M11.2431 6.04652C11.2943 5.99527 11.319 5.93679 11.2981 5.91592C11.2772 5.89505 11.2187 5.91967 11.1675 5.97093C11.1162 6.02219 11.0916 6.08066 11.1125 6.10153C11.1333 6.12241 11.1918 6.09778 11.2431 6.04652Z" fill="#FFD392"/>
<path d="M10.9445 6.33905C10.9958 6.28779 11.0204 6.22932 10.9995 6.20845C10.9787 6.18757 10.9202 6.2122 10.8689 6.26346C10.8177 6.31471 10.793 6.37318 10.8139 6.39406C10.8348 6.41493 10.8933 6.39031 10.9445 6.33905Z" fill="#FFD392"/>
<path d="M10.9854 6.09324C11.0062 6.07236 10.9816 6.01389 10.9304 5.96263C10.8791 5.91138 10.8206 5.88675 10.7998 5.90762C10.7789 5.9285 10.8035 5.98697 10.8548 6.03823C10.906 6.08948 10.9645 6.11411 10.9854 6.09324Z" fill="#FFD392"/>
<path d="M11.2783 6.39136C11.2992 6.37049 11.2746 6.31201 11.2233 6.26076C11.1721 6.2095 11.1136 6.18487 11.0927 6.20575C11.0719 6.22662 11.0965 6.2851 11.1477 6.33635C11.199 6.38761 11.2575 6.41224 11.2783 6.39136Z" fill="#FFD392"/>
<path d="M12.6708 6.52412C12.7238 6.52412 12.7667 6.48118 12.7667 6.42821C12.7667 6.37524 12.7238 6.33231 12.6708 6.33231C12.6179 6.33231 12.5749 6.37524 12.5749 6.42821C12.5749 6.48118 12.6179 6.52412 12.6708 6.52412Z" fill="#7CBCE8" stroke="white" stroke-width="0.05" stroke-miterlimit="10"/>
<path d="M12.6751 6.34871C12.7046 6.34871 12.7285 6.28995 12.7285 6.21746C12.7285 6.14497 12.7046 6.08621 12.6751 6.08621C12.6455 6.08621 12.6216 6.14497 12.6216 6.21746C12.6216 6.28995 12.6455 6.34871 12.6751 6.34871Z" fill="#FFD392"/>
<path d="M12.6708 6.76982C12.7003 6.76982 12.7243 6.71106 12.7243 6.63857C12.7243 6.56609 12.7003 6.50732 12.6708 6.50732C12.6413 6.50732 12.6174 6.56609 12.6174 6.63857C12.6174 6.71106 12.6413 6.76982 12.6708 6.76982Z" fill="#FFD392"/>
<path d="M12.8793 6.50106C12.9518 6.50106 13.0105 6.47712 13.0105 6.4476C13.0105 6.41808 12.9518 6.39415 12.8793 6.39415C12.8068 6.39415 12.748 6.41808 12.748 6.4476C12.748 6.47712 12.8068 6.50106 12.8793 6.50106Z" fill="#FFD392"/>
<path d="M12.4637 6.4968C12.5362 6.4968 12.595 6.47287 12.595 6.44335C12.595 6.41382 12.5362 6.38989 12.4637 6.38989C12.3913 6.38989 12.3325 6.41382 12.3325 6.44335C12.3325 6.47287 12.3913 6.4968 12.4637 6.4968Z" fill="#FFD392"/>
<path d="M12.8677 6.3315C12.9189 6.28024 12.9435 6.22177 12.9227 6.20089C12.9018 6.18002 12.8433 6.20465 12.7921 6.2559C12.7408 6.30716 12.7162 6.36563 12.737 6.38651C12.7579 6.40738 12.8164 6.38275 12.8677 6.3315Z" fill="#FFD392"/>
<path d="M12.5691 6.62402C12.6204 6.57277 12.645 6.51429 12.6241 6.49342C12.6032 6.47254 12.5448 6.49717 12.4935 6.54843C12.4422 6.59968 12.4176 6.65816 12.4385 6.67903C12.4594 6.69991 12.5178 6.67528 12.5691 6.62402Z" fill="#FFD392"/>
<path d="M12.6099 6.37821C12.6308 6.35733 12.6062 6.29886 12.5549 6.2476C12.5037 6.19635 12.4452 6.17172 12.4243 6.1926C12.4035 6.21347 12.4281 6.27194 12.4793 6.3232C12.5306 6.37445 12.5891 6.39908 12.6099 6.37821Z" fill="#FFD392"/>
<path d="M12.9029 6.67634C12.9238 6.65546 12.8992 6.59699 12.8479 6.54573C12.7967 6.49448 12.7382 6.46985 12.7173 6.49072C12.6964 6.5116 12.7211 6.57007 12.7723 6.62133C12.8236 6.67258 12.882 6.69721 12.9029 6.67634Z" fill="#FFD392"/>
</g>
<defs>
<clipPath id="clip0_124_1980">
<rect width="16" height="16" fill="white"/>
</clipPath>
</defs>
</svg>
