<?xml version="1.0" encoding="UTF-8"?>
<svg id="typewriter" xmlns="http://www.w3.org/2000/svg" viewBox="0 0 420.95 322.27">
  <defs>
    <style>
      .cls-1 {
        fill: #ffb97d;
      }

      .cls-2 {
        fill: #e19e87;
      }

      .cls-3 {
        fill: #96d0e7;
      }

      .cls-3, .cls-4, .cls-5 {
        stroke-width: 2px;
      }

      .cls-3, .cls-4, .cls-5, .cls-6, .cls-7 {
        stroke: #fff;
        stroke-miterlimit: 10;
      }

      .cls-4 {
        fill: #fff;
      }

      .cls-5 {
        fill: #5da5c5;
      }

      .cls-6, .cls-7 {
        fill: none;
      }

      .cls-7 {
        stroke-width: .5px;
      }
    </style>
  </defs>
  <g>
    <g>
      <path class="cls-3" d="m405.2,178.03c-.19,2.28-2.18,3.84-5.13,4.9-.39.14-.79.27-1.2.39-.42.12-.86.24-1.3.34-.44.11-.9.2-1.36.3-1.71.33-3.57.58-5.48.75-.34.03-.7.06-1.05.09-.17.01-.34.03-.52.04-.35.02-.7.05-1.05.07-1.06.06-2.12.1-3.18.14-.34.01-.69.02-1.03.03-1.38.03-2.74.04-4.03.04-1.17,0-2.28-.01-3.31-.03-.34,0-.67-.01-1-.01-1.31-.01-2.45-.03-3.38-.03h-151.26c-8.54,0-64.46.14-115.02-.08-1.5-.01-2.99-.01-4.48-.02-1.98-.01-3.94-.02-5.9-.03-1.95-.01-3.89-.02-5.81-.03-.96-.01-1.93-.02-2.88-.02-1.22-.01-2.43-.02-3.63-.03-.67,0-1.35-.01-2.02-.01-1.39-.01-2.78-.02-4.16-.03-.46-.01-.91-.01-1.36-.01-.81-.01-1.62-.02-2.42-.03-.83,0-1.65,0-2.47-.02-1.49-.01-2.95-.02-4.4-.04-.23-.01-.45-.01-.68-.01-.55,0-1.1,0-1.65-.02h-.22c-1.27-.01-2.51-.02-3.74-.04-.84,0-1.66-.02-2.48-.03-.51-.01-1.01-.02-1.51-.02-.69-.01-1.37-.02-2.05-.03-1.13-.01-2.24-.03-3.32-.05-.19,0-.38-.01-.56-.01-.48-.01-.95-.02-1.42-.02-.07,0-.15-.01-.22,0-.72-.01-1.43-.03-2.12-.04-.11,0-.22-.01-.32-.01-.67-.01-1.32-.02-1.96-.03-.7-.02-1.38-.03-2.05-.04-.84-.02-1.66-.04-2.46-.06-1.2-.02-2.35-.05-3.45-.08-.3-.01-.59-.02-.87-.02-2.65-.07-4.99-.15-6.97-.24-.33-.01-.65-.02-.96-.04-.23-.01-.46-.02-.68-.03-.33-.02-.65-.03-.96-.05-.68-.04-1.3-.08-1.84-.12-.27-.02-.53-.04-.76-.06-.36-.03-.68-.06-.95-.09-.16-.02-.3-.04-.43-.06-.1-.01-.19-.03-.27-.04-3.06-.53-4.29-3.98-4.38-9.07h0c-.15-8.66,2.99-22.03,6.06-33.81,2.7,2.14,6.53,3.33,12.88,3.33h351.76c6.27,0,10.08-1.16,12.77-3.25,2.91,8.49,3.7,25.05,4.37,34.14v.02c.09,1.22.18,2.3.27,3.21Z"/>
      <path class="cls-3" d="m413.64,272.75c-.33-9.79-4.61-64.1-5.31-77.31-.69-12.94-1.2-13.98-3.4-20.62.09,1.22.18,2.3.27,3.21-.19,2.28-2.18,3.84-5.13,4.9-.39.14-.79.27-1.2.39-.42.12-.86.24-1.3.34-.44.11-.9.21-1.36.3-1.71.33-3.57.58-5.48.75-.34.03-.7.06-1.05.09-.17.01-.34.03-.52.04-.35.02-.7.05-1.05.07-1.06.06-2.12.1-3.18.14-.34.01-.69.02-1.03.03-1.38.03-2.74.04-4.03.04,6.66,8.47,13.94,27.91,18.17,49.12.14.69.27,1.38.4,2.07,4.18,22.13,9.19,42.18-4.8,42.18s-21.46.87-28.53,3.18c-.96.31-2.01.6-3.13.85-1.21.27-2.5.5-3.86.7-6.65,1.01-14.83,1.26-22.27,1.26H89.99c-7.2,0-15.1-.24-21.63-1.16-1.34-.19-2.62-.41-3.82-.66-1.38-.28-2.66-.61-3.81-.99-7.07-2.31-14.54-3.18-28.53-3.18s-8.98-20.05-4.8-42.18c.13-.69.26-1.38.4-2.07.13-.66.27-1.32.41-1.97v-.02c4.3-20.58,11.4-39.7,17.87-47.83-.67-.01-1.32-.02-1.96-.03-.7-.02-1.38-.03-2.05-.04-.84-.02-1.66-.04-2.46-.06-1.2-.02-2.35-.05-3.45-.08-.3-.01-.59-.02-.87-.02-2.65-.07-4.99-.15-6.97-.24-.33-.01-.65-.02-.96-.04-.23-.01-.46-.02-.68-.03-.33-.02-.65-.03-.96-.05-.68-.04-1.3-.08-1.84-.12-.27-.02-.53-.04-.76-.06-.36-.03-.68-.06-.95-.09-.16-.02-.3-.04-.43-.06-.1-.01-.19-.03-.27-.04-3.06-.53-4.29-3.98-4.38-9.07-2.32,7.03-2.83,7.84-3.53,21.05-.71,13.21-4.99,67.52-5.32,77.31-.01.43-.03.85-.05,1.28,0,.41-.01.84-.02,1.26-.06,8.86,2.89,16.95,45.76,16.95h314.02c39.61,0,45.15-6.9,45.7-14.94v-.03c.11-1.48.04-3-.01-4.52Z"/>
      <path class="cls-5" d="m393.64,278.49c-13.99,0-21.46.87-28.53,3.18-.96.31-2.01.6-3.13.85-1.21.27-2.5.5-3.86.7-6.65,1.01-14.83,1.26-22.27,1.26H89.99c-7.2,0-15.1-.24-21.63-1.16-1.34-.19-2.62-.41-3.82-.66-1.38-.28-2.66-.61-3.81-.99-7.07-2.31-14.54-3.18-28.53-3.18s-8.98-20.05-4.8-42.18c.13-.69.26-1.38.4-2.07.13-.66.27-1.32.41-1.97v-.02c4.3-20.58,11.4-39.7,17.87-47.83.1,0,.21.01.32.01.69,0,1.4.03,2.12.04.07-.01.15,0,.22,0,.47,0,.94.01,1.42.02.18,0,.37.01.56.01,1.08.02,2.19.04,3.32.05.68.01,1.36.02,2.05.03.5,0,1,.01,1.51.02.82.01,1.64.02,2.48.03,1.23.02,2.47.03,3.74.04h.22c.55.01,1.1.01,1.65.02.23,0,.45,0,.68.01,1.45.02,2.91.03,4.4.04.82.01,1.64.02,2.47.02.8.01,1.61.02,2.42.03.45,0,.9,0,1.36.01,1.38.01,2.77.02,4.16.03.67,0,1.35.01,2.02.01,1.2.01,2.41.02,3.63.03.95,0,1.92,0,2.88.02,1.92.01,3.86.02,5.81.03,1.96.01,3.92.02,5.9.03,1.49.01,2.98.01,4.48.02,50.56.22,106.48.08,115.02.08h151.26c.93,0,2.07.02,3.38.03.33,0,.66.01,1,.01,1.03.02,2.14.03,3.31.03,6.66,8.47,13.94,27.91,18.17,49.12.14.69.27,1.38.4,2.07,4.18,22.13,9.19,42.18-4.8,42.18Z"/>
      <path class="cls-3" d="m405.32,313.63c-3.55.7-136.93.28-193.14.08h-.48c-54.89.19-191.69.62-195.3-.08-13.57-2.64-8.57-23.65-8.23-38.34-.06,8.86,2.89,16.95,45.76,16.95h314.02c39.61,0,45.15-6.9,45.7-14.94.68,14.53,4.64,33.8-8.33,36.33Z"/>
      <path class="cls-4" d="m332.37,8.7v69.48c-1.73-.07-2.78-.08-3.24-.06-.11,0-.18,0-.23,0-3.13.93-27.61,14.48-117.76,14.48s-125.26-14.51-125.26-14.51c-.94.02-2.2.02-3.71.04V8.7h250.2Z"/>
    </g>
    <path class="cls-3" d="m400.56,140.66c-2.69,2.09-6.5,3.25-12.77,3.25H36.03c-6.35,0-10.18-1.19-12.88-3.33h0c2.09-8.02,4.15-15.28,5.11-19.84,0,0,2.46-15.08,13.69-29.22,9.76-12.28,30.29-13.25,40.22-13.38,1.51-.02,2.77-.02,3.71-.04,0,0,35.11,14.51,125.26,14.51s114.63-13.55,117.76-14.48c.05,0,.12,0,.23,0,.46-.02,1.51-.01,3.24.06,2.02.06,4.93.17,8.89.33,7.03.65,15.8,2.19,22.68,5.78,10.99,5.73,25.21,28.17,32.56,45.13.01.01.01.02.01.02,1.83,4.19,3.22,8.04,4.05,11.22Z"/>
  </g>
  <g>
    <g>
      <path class="cls-1" d="m80.15,214.02c0,.43-.17.85-.49,1.24-1.17,1.41-4.28,2.41-7.93,2.41s-6.76-1-7.93-2.41c-.32-.39-.49-.81-.49-1.24,0-2.01,3.77-3.65,8.42-3.65s8.42,1.64,8.42,3.65Z"/>
      <path class="cls-2" d="m80.15,216.5c0,2.02-3.77,3.65-8.42,3.65s-8.42-1.63-8.42-3.65c0-.43.17-.85.49-1.24,1.17,1.41,4.28,2.41,7.93,2.41s6.76-1,7.93-2.41c.32.39.49.81.49,1.24Z"/>
    </g>
    <line class="cls-6" x1="71.73" y1="220.34" x2="71.73" y2="233.1"/>
    <ellipse class="cls-7" cx="71.73" cy="214.02" rx="6.83" ry="2.96"/>
  </g>
  <g>
    <g>
      <path class="cls-1" d="m110.9,214.02c0,.43-.17.85-.49,1.24-1.17,1.41-4.28,2.41-7.93,2.41s-6.76-1-7.93-2.41c-.32-.39-.49-.81-.49-1.24,0-2.01,3.77-3.65,8.42-3.65s8.42,1.64,8.42,3.65Z"/>
      <path class="cls-2" d="m110.9,216.5c0,2.02-3.77,3.65-8.42,3.65s-8.42-1.63-8.42-3.65c0-.43.17-.85.49-1.24,1.17,1.41,4.28,2.41,7.93,2.41s6.76-1,7.93-2.41c.32.39.49.81.49,1.24Z"/>
    </g>
    <line class="cls-6" x1="102.48" y1="220.34" x2="102.48" y2="233.1"/>
    <ellipse class="cls-7" cx="102.48" cy="214.02" rx="6.83" ry="2.96"/>
  </g>
  <g>
    <g>
      <path class="cls-1" d="m141.65,214.02c0,.43-.17.85-.49,1.24-1.17,1.41-4.28,2.41-7.93,2.41s-6.76-1-7.93-2.41c-.32-.39-.49-.81-.49-1.24,0-2.01,3.77-3.65,8.42-3.65s8.42,1.64,8.42,3.65Z"/>
      <path class="cls-2" d="m141.65,216.5c0,2.02-3.77,3.65-8.42,3.65s-8.42-1.63-8.42-3.65c0-.43.17-.85.49-1.24,1.17,1.41,4.28,2.41,7.93,2.41s6.76-1,7.93-2.41c.32.39.49.81.49,1.24Z"/>
    </g>
    <line class="cls-6" x1="133.23" y1="220.34" x2="133.23" y2="233.1"/>
    <ellipse class="cls-7" cx="133.23" cy="214.02" rx="6.83" ry="2.96"/>
  </g>
  <g>
    <g>
      <path class="cls-1" d="m172.4,214.02c0,.43-.17.85-.49,1.24-1.17,1.41-4.28,2.41-7.93,2.41s-6.76-1-7.93-2.41c-.32-.39-.49-.81-.49-1.24,0-2.01,3.77-3.65,8.42-3.65s8.42,1.64,8.42,3.65Z"/>
      <path class="cls-2" d="m172.4,216.5c0,2.02-3.77,3.65-8.42,3.65s-8.42-1.63-8.42-3.65c0-.43.17-.85.49-1.24,1.17,1.41,4.28,2.41,7.93,2.41s6.76-1,7.93-2.41c.32.39.49.81.49,1.24Z"/>
    </g>
    <line class="cls-6" x1="163.98" y1="220.34" x2="163.98" y2="233.1"/>
    <ellipse class="cls-7" cx="163.98" cy="214.02" rx="6.83" ry="2.96"/>
  </g>
  <g>
    <g>
      <path class="cls-1" d="m203.15,214.02c0,.43-.17.85-.49,1.24-1.17,1.41-4.28,2.41-7.93,2.41s-6.76-1-7.93-2.41c-.32-.39-.49-.81-.49-1.24,0-2.01,3.77-3.65,8.42-3.65s8.42,1.64,8.42,3.65Z"/>
      <path class="cls-2" d="m203.15,216.5c0,2.02-3.77,3.65-8.42,3.65s-8.42-1.63-8.42-3.65c0-.43.17-.85.49-1.24,1.17,1.41,4.28,2.41,7.93,2.41s6.76-1,7.93-2.41c.32.39.49.81.49,1.24Z"/>
    </g>
    <line class="cls-6" x1="194.73" y1="220.34" x2="194.73" y2="233.1"/>
    <ellipse class="cls-7" cx="194.73" cy="214.02" rx="6.83" ry="2.96"/>
  </g>
  <g>
    <g>
      <path class="cls-1" d="m233.91,214.02c0,.43-.17.85-.49,1.24-1.17,1.41-4.28,2.41-7.93,2.41s-6.76-1-7.93-2.41c-.32-.39-.49-.81-.49-1.24,0-2.01,3.77-3.65,8.42-3.65s8.42,1.64,8.42,3.65Z"/>
      <path class="cls-2" d="m233.91,216.5c0,2.02-3.77,3.65-8.42,3.65s-8.42-1.63-8.42-3.65c0-.43.17-.85.49-1.24,1.17,1.41,4.28,2.41,7.93,2.41s6.76-1,7.93-2.41c.32.39.49.81.49,1.24Z"/>
    </g>
    <line class="cls-6" x1="225.49" y1="220.34" x2="225.49" y2="233.1"/>
    <ellipse class="cls-7" cx="225.49" cy="214.02" rx="6.83" ry="2.96"/>
  </g>
  <g>
    <g>
      <path class="cls-1" d="m264.66,214.02c0,.43-.17.85-.49,1.24-1.17,1.41-4.28,2.41-7.93,2.41s-6.76-1-7.93-2.41c-.32-.39-.49-.81-.49-1.24,0-2.01,3.77-3.65,8.42-3.65s8.42,1.64,8.42,3.65Z"/>
      <path class="cls-2" d="m264.66,216.5c0,2.02-3.77,3.65-8.42,3.65s-8.42-1.63-8.42-3.65c0-.43.17-.85.49-1.24,1.17,1.41,4.28,2.41,7.93,2.41s6.76-1,7.93-2.41c.32.39.49.81.49,1.24Z"/>
    </g>
    <line class="cls-6" x1="256.24" y1="220.34" x2="256.24" y2="233.1"/>
    <ellipse class="cls-7" cx="256.24" cy="214.02" rx="6.83" ry="2.96"/>
  </g>
  <g>
    <g>
      <path class="cls-1" d="m295.41,214.02c0,.43-.17.85-.49,1.24-1.17,1.41-4.28,2.41-7.93,2.41s-6.76-1-7.93-2.41c-.32-.39-.49-.81-.49-1.24,0-2.01,3.77-3.65,8.42-3.65s8.42,1.64,8.42,3.65Z"/>
      <path class="cls-2" d="m295.41,216.5c0,2.02-3.77,3.65-8.42,3.65s-8.42-1.63-8.42-3.65c0-.43.17-.85.49-1.24,1.17,1.41,4.28,2.41,7.93,2.41s6.76-1,7.93-2.41c.32.39.49.81.49,1.24Z"/>
    </g>
    <line class="cls-6" x1="286.99" y1="220.34" x2="286.99" y2="233.1"/>
    <ellipse class="cls-7" cx="286.99" cy="214.02" rx="6.83" ry="2.96"/>
  </g>
  <g>
    <g>
      <path class="cls-1" d="m326.16,214.02c0,.43-.17.85-.49,1.24-1.17,1.41-4.28,2.41-7.93,2.41s-6.76-1-7.93-2.41c-.32-.39-.49-.81-.49-1.24,0-2.01,3.77-3.65,8.42-3.65s8.42,1.64,8.42,3.65Z"/>
      <path class="cls-2" d="m326.16,216.5c0,2.02-3.77,3.65-8.42,3.65s-8.42-1.63-8.42-3.65c0-.43.17-.85.49-1.24,1.17,1.41,4.28,2.41,7.93,2.41s6.76-1,7.93-2.41c.32.39.49.81.49,1.24Z"/>
    </g>
    <line class="cls-6" x1="317.74" y1="220.34" x2="317.74" y2="233.1"/>
    <ellipse class="cls-7" cx="317.74" cy="214.02" rx="6.83" ry="2.96"/>
  </g>
  <g>
    <g>
      <path class="cls-1" d="m356.92,214.02c0,.43-.17.85-.49,1.24-1.17,1.41-4.28,2.41-7.93,2.41s-6.76-1-7.93-2.41c-.32-.39-.49-.81-.49-1.24,0-2.01,3.77-3.65,8.42-3.65s8.42,1.64,8.42,3.65Z"/>
      <path class="cls-2" d="m356.92,216.5c0,2.02-3.77,3.65-8.42,3.65s-8.42-1.63-8.42-3.65c0-.43.17-.85.49-1.24,1.17,1.41,4.28,2.41,7.93,2.41s6.76-1,7.93-2.41c.32.39.49.81.49,1.24Z"/>
    </g>
    <line class="cls-6" x1="348.5" y1="220.34" x2="348.5" y2="233.1"/>
    <ellipse class="cls-7" cx="348.5" cy="214.02" rx="6.83" ry="2.96"/>
  </g>
  <g>
    <g>
      <path class="cls-1" d="m73.19,191.63c0,.43-.17.85-.49,1.24-1.17,1.41-4.28,2.41-7.93,2.41s-6.76-1-7.93-2.41c-.32-.39-.49-.81-.49-1.24,0-2.01,3.77-3.65,8.42-3.65s8.42,1.64,8.42,3.65Z"/>
      <path class="cls-2" d="m73.19,194.11c0,2.02-3.77,3.65-8.42,3.65s-8.42-1.63-8.42-3.65c0-.43.17-.85.49-1.24,1.17,1.41,4.28,2.41,7.93,2.41s6.76-1,7.93-2.41c.32.39.49.81.49,1.24Z"/>
    </g>
    <line class="cls-6" x1="64.71" y1="197.76" x2="64.71" y2="210.52"/>
    <ellipse class="cls-7" cx="64.72" cy="191.63" rx="6.83" ry="2.96"/>
  </g>
  <g>
    <g>
      <path class="cls-1" d="m103.94,191.63c0,.43-.17.85-.49,1.24-1.17,1.41-4.28,2.41-7.93,2.41s-6.76-1-7.93-2.41c-.32-.39-.49-.81-.49-1.24,0-2.01,3.77-3.65,8.42-3.65s8.42,1.64,8.42,3.65Z"/>
      <path class="cls-2" d="m103.94,194.11c0,2.02-3.77,3.65-8.42,3.65s-8.42-1.63-8.42-3.65c0-.43.17-.85.49-1.24,1.17,1.41,4.28,2.41,7.93,2.41s6.76-1,7.93-2.41c.32.39.49.81.49,1.24Z"/>
    </g>
    <line class="cls-6" x1="95.46" y1="197.76" x2="95.46" y2="210.52"/>
    <ellipse class="cls-7" cx="95.47" cy="191.63" rx="6.83" ry="2.96"/>
  </g>
  <g>
    <g>
      <path class="cls-1" d="m134.69,191.63c0,.43-.17.85-.49,1.24-1.17,1.41-4.28,2.41-7.93,2.41s-6.76-1-7.93-2.41c-.32-.39-.49-.81-.49-1.24,0-2.01,3.77-3.65,8.42-3.65s8.42,1.64,8.42,3.65Z"/>
      <path class="cls-2" d="m134.69,194.11c0,2.02-3.77,3.65-8.42,3.65s-8.42-1.63-8.42-3.65c0-.43.17-.85.49-1.24,1.17,1.41,4.28,2.41,7.93,2.41s6.76-1,7.93-2.41c.32.39.49.81.49,1.24Z"/>
    </g>
    <line class="cls-6" x1="126.21" y1="197.76" x2="126.21" y2="210.52"/>
    <ellipse class="cls-7" cx="126.22" cy="191.63" rx="6.83" ry="2.96"/>
  </g>
  <g>
    <g>
      <path class="cls-1" d="m165.45,191.63c0,.43-.17.85-.49,1.24-1.17,1.41-4.28,2.41-7.93,2.41s-6.76-1-7.93-2.41c-.32-.39-.49-.81-.49-1.24,0-2.01,3.77-3.65,8.42-3.65s8.42,1.64,8.42,3.65Z"/>
      <path class="cls-2" d="m165.45,194.11c0,2.02-3.77,3.65-8.42,3.65s-8.42-1.63-8.42-3.65c0-.43.17-.85.49-1.24,1.17,1.41,4.28,2.41,7.93,2.41s6.76-1,7.93-2.41c.32.39.49.81.49,1.24Z"/>
    </g>
    <line class="cls-6" x1="156.96" y1="197.76" x2="156.96" y2="210.52"/>
    <ellipse class="cls-7" cx="156.97" cy="191.63" rx="6.83" ry="2.96"/>
  </g>
  <g>
    <g>
      <path class="cls-1" d="m196.2,191.63c0,.43-.17.85-.49,1.24-1.17,1.41-4.28,2.41-7.93,2.41s-6.76-1-7.93-2.41c-.32-.39-.49-.81-.49-1.24,0-2.01,3.77-3.65,8.42-3.65s8.42,1.64,8.42,3.65Z"/>
      <path class="cls-2" d="m196.2,194.11c0,2.02-3.77,3.65-8.42,3.65s-8.42-1.63-8.42-3.65c0-.43.17-.85.49-1.24,1.17,1.41,4.28,2.41,7.93,2.41s6.76-1,7.93-2.41c.32.39.49.81.49,1.24Z"/>
    </g>
    <line class="cls-6" x1="187.72" y1="197.76" x2="187.72" y2="210.52"/>
    <ellipse class="cls-7" cx="187.73" cy="191.63" rx="6.83" ry="2.96"/>
  </g>
  <g>
    <g>
      <path class="cls-1" d="m226.95,191.63c0,.43-.17.85-.49,1.24-1.17,1.41-4.28,2.41-7.93,2.41s-6.76-1-7.93-2.41c-.32-.39-.49-.81-.49-1.24,0-2.01,3.77-3.65,8.42-3.65s8.42,1.64,8.42,3.65Z"/>
      <path class="cls-2" d="m226.95,194.11c0,2.02-3.77,3.65-8.42,3.65s-8.42-1.63-8.42-3.65c0-.43.17-.85.49-1.24,1.17,1.41,4.28,2.41,7.93,2.41s6.76-1,7.93-2.41c.32.39.49.81.49,1.24Z"/>
    </g>
    <line class="cls-6" x1="218.47" y1="197.76" x2="218.47" y2="210.52"/>
    <ellipse class="cls-7" cx="218.48" cy="191.63" rx="6.83" ry="2.96"/>
  </g>
  <g>
    <g>
      <path class="cls-1" d="m257.7,191.63c0,.43-.17.85-.49,1.24-1.17,1.41-4.28,2.41-7.93,2.41s-6.76-1-7.93-2.41c-.32-.39-.49-.81-.49-1.24,0-2.01,3.77-3.65,8.42-3.65s8.42,1.64,8.42,3.65Z"/>
      <path class="cls-2" d="m257.7,194.11c0,2.02-3.77,3.65-8.42,3.65s-8.42-1.63-8.42-3.65c0-.43.17-.85.49-1.24,1.17,1.41,4.28,2.41,7.93,2.41s6.76-1,7.93-2.41c.32.39.49.81.49,1.24Z"/>
    </g>
    <line class="cls-6" x1="249.22" y1="197.76" x2="249.22" y2="210.52"/>
    <ellipse class="cls-7" cx="249.23" cy="191.63" rx="6.83" ry="2.96"/>
  </g>
  <g>
    <g>
      <path class="cls-1" d="m288.46,191.63c0,.43-.17.85-.49,1.24-1.17,1.41-4.28,2.41-7.93,2.41s-6.76-1-7.93-2.41c-.32-.39-.49-.81-.49-1.24,0-2.01,3.77-3.65,8.42-3.65s8.42,1.64,8.42,3.65Z"/>
      <path class="cls-2" d="m288.46,194.11c0,2.02-3.77,3.65-8.42,3.65s-8.42-1.63-8.42-3.65c0-.43.17-.85.49-1.24,1.17,1.41,4.28,2.41,7.93,2.41s6.76-1,7.93-2.41c.32.39.49.81.49,1.24Z"/>
    </g>
    <line class="cls-6" x1="279.97" y1="197.76" x2="279.97" y2="210.52"/>
    <ellipse class="cls-7" cx="279.98" cy="191.63" rx="6.83" ry="2.96"/>
  </g>
  <g>
    <g>
      <path class="cls-1" d="m319.21,191.63c0,.43-.17.85-.49,1.24-1.17,1.41-4.28,2.41-7.93,2.41s-6.76-1-7.93-2.41c-.32-.39-.49-.81-.49-1.24,0-2.01,3.77-3.65,8.42-3.65s8.42,1.64,8.42,3.65Z"/>
      <path class="cls-2" d="m319.21,194.11c0,2.02-3.77,3.65-8.42,3.65s-8.42-1.63-8.42-3.65c0-.43.17-.85.49-1.24,1.17,1.41,4.28,2.41,7.93,2.41s6.76-1,7.93-2.41c.32.39.49.81.49,1.24Z"/>
    </g>
    <line class="cls-6" x1="310.72" y1="197.76" x2="310.72" y2="210.52"/>
    <ellipse class="cls-7" cx="310.73" cy="191.63" rx="6.83" ry="2.96"/>
  </g>
  <g>
    <g>
      <path class="cls-1" d="m349.96,191.63c0,.43-.17.85-.49,1.24-1.17,1.41-4.28,2.41-7.93,2.41s-6.76-1-7.93-2.41c-.32-.39-.49-.81-.49-1.24,0-2.01,3.77-3.65,8.42-3.65s8.42,1.64,8.42,3.65Z"/>
      <path class="cls-2" d="m349.96,194.11c0,2.02-3.77,3.65-8.42,3.65s-8.42-1.63-8.42-3.65c0-.43.17-.85.49-1.24,1.17,1.41,4.28,2.41,7.93,2.41s6.76-1,7.93-2.41c.32.39.49.81.49,1.24Z"/>
    </g>
    <line class="cls-6" x1="341.48" y1="197.76" x2="341.48" y2="210.52"/>
    <ellipse class="cls-7" cx="341.49" cy="191.63" rx="6.83" ry="2.96"/>
  </g>
  <g>
    <g>
      <path class="cls-1" d="m88.57,169.25c0,.43-.17.85-.49,1.24-1.17,1.41-4.28,2.41-7.93,2.41s-6.76-1-7.93-2.41c-.32-.39-.49-.81-.49-1.24,0-2.01,3.77-3.65,8.42-3.65s8.42,1.64,8.42,3.65Z"/>
      <path class="cls-2" d="m88.57,171.73c0,2.02-3.77,3.65-8.42,3.65s-8.42-1.63-8.42-3.65c0-.43.17-.85.49-1.24,1.17,1.41,4.28,2.41,7.93,2.41s6.76-1,7.93-2.41c.32.39.49.81.49,1.24Z"/>
    </g>
    <line class="cls-6" x1="80.15" y1="175.38" x2="80.15" y2="185.12"/>
    <ellipse class="cls-7" cx="80.08" cy="169.25" rx="6.83" ry="2.96"/>
  </g>
  <g>
    <g>
      <path class="cls-1" d="m119.32,169.25c0,.43-.17.85-.49,1.24-1.17,1.41-4.28,2.41-7.93,2.41s-6.76-1-7.93-2.41c-.32-.39-.49-.81-.49-1.24,0-2.01,3.77-3.65,8.42-3.65s8.42,1.64,8.42,3.65Z"/>
      <path class="cls-2" d="m119.32,171.73c0,2.02-3.77,3.65-8.42,3.65s-8.42-1.63-8.42-3.65c0-.43.17-.85.49-1.24,1.17,1.41,4.28,2.41,7.93,2.41s6.76-1,7.93-2.41c.32.39.49.81.49,1.24Z"/>
    </g>
    <line class="cls-6" x1="110.9" y1="175.38" x2="110.9" y2="185.12"/>
    <ellipse class="cls-7" cx="110.83" cy="169.25" rx="6.83" ry="2.96"/>
  </g>
  <g>
    <g>
      <path class="cls-1" d="m150.07,169.25c0,.43-.17.85-.49,1.24-1.17,1.41-4.28,2.41-7.93,2.41s-6.76-1-7.93-2.41c-.32-.39-.49-.81-.49-1.24,0-2.01,3.77-3.65,8.42-3.65s8.42,1.64,8.42,3.65Z"/>
      <path class="cls-2" d="m150.07,171.73c0,2.02-3.77,3.65-8.42,3.65s-8.42-1.63-8.42-3.65c0-.43.17-.85.49-1.24,1.17,1.41,4.28,2.41,7.93,2.41s6.76-1,7.93-2.41c.32.39.49.81.49,1.24Z"/>
    </g>
    <line class="cls-6" x1="141.65" y1="175.38" x2="141.65" y2="185.12"/>
    <ellipse class="cls-7" cx="141.59" cy="169.25" rx="6.83" ry="2.96"/>
  </g>
  <g>
    <g>
      <path class="cls-1" d="m180.82,169.25c0,.43-.17.85-.49,1.24-1.17,1.41-4.28,2.41-7.93,2.41s-6.76-1-7.93-2.41c-.32-.39-.49-.81-.49-1.24,0-2.01,3.77-3.65,8.42-3.65s8.42,1.64,8.42,3.65Z"/>
      <path class="cls-2" d="m180.82,171.73c0,2.02-3.77,3.65-8.42,3.65s-8.42-1.63-8.42-3.65c0-.43.17-.85.49-1.24,1.17,1.41,4.28,2.41,7.93,2.41s6.76-1,7.93-2.41c.32.39.49.81.49,1.24Z"/>
    </g>
    <line class="cls-6" x1="172.4" y1="175.38" x2="172.4" y2="185.12"/>
    <ellipse class="cls-7" cx="172.34" cy="169.25" rx="6.83" ry="2.96"/>
  </g>
  <g>
    <g>
      <path class="cls-1" d="m211.57,169.25c0,.43-.17.85-.49,1.24-1.17,1.41-4.28,2.41-7.93,2.41s-6.76-1-7.93-2.41c-.32-.39-.49-.81-.49-1.24,0-2.01,3.77-3.65,8.42-3.65s8.42,1.64,8.42,3.65Z"/>
      <path class="cls-2" d="m211.57,171.73c0,2.02-3.77,3.65-8.42,3.65s-8.42-1.63-8.42-3.65c0-.43.17-.85.49-1.24,1.17,1.41,4.28,2.41,7.93,2.41s6.76-1,7.93-2.41c.32.39.49.81.49,1.24Z"/>
    </g>
    <line class="cls-6" x1="203.15" y1="175.38" x2="203.15" y2="185.12"/>
    <ellipse class="cls-7" cx="203.09" cy="169.25" rx="6.83" ry="2.96"/>
  </g>
  <g>
    <g>
      <path class="cls-1" d="m242.33,169.25c0,.43-.17.85-.49,1.24-1.17,1.41-4.28,2.41-7.93,2.41s-6.76-1-7.93-2.41c-.32-.39-.49-.81-.49-1.24,0-2.01,3.77-3.65,8.42-3.65s8.42,1.64,8.42,3.65Z"/>
      <path class="cls-2" d="m242.33,171.73c0,2.02-3.77,3.65-8.42,3.65s-8.42-1.63-8.42-3.65c0-.43.17-.85.49-1.24,1.17,1.41,4.28,2.41,7.93,2.41s6.76-1,7.93-2.41c.32.39.49.81.49,1.24Z"/>
    </g>
    <line class="cls-6" x1="233.91" y1="175.38" x2="233.91" y2="185.12"/>
    <ellipse class="cls-7" cx="233.84" cy="169.25" rx="6.83" ry="2.96"/>
  </g>
  <g>
    <g>
      <path class="cls-1" d="m273.08,169.25c0,.43-.17.85-.49,1.24-1.17,1.41-4.28,2.41-7.93,2.41s-6.76-1-7.93-2.41c-.32-.39-.49-.81-.49-1.24,0-2.01,3.77-3.65,8.42-3.65s8.42,1.64,8.42,3.65Z"/>
      <path class="cls-2" d="m273.08,171.73c0,2.02-3.77,3.65-8.42,3.65s-8.42-1.63-8.42-3.65c0-.43.17-.85.49-1.24,1.17,1.41,4.28,2.41,7.93,2.41s6.76-1,7.93-2.41c.32.39.49.81.49,1.24Z"/>
    </g>
    <line class="cls-6" x1="264.66" y1="175.38" x2="264.66" y2="185.12"/>
    <ellipse class="cls-7" cx="264.6" cy="169.25" rx="6.83" ry="2.96"/>
  </g>
  <g>
    <g>
      <path class="cls-1" d="m303.83,169.25c0,.43-.17.85-.49,1.24-1.17,1.41-4.28,2.41-7.93,2.41s-6.76-1-7.93-2.41c-.32-.39-.49-.81-.49-1.24,0-2.01,3.77-3.65,8.42-3.65s8.42,1.64,8.42,3.65Z"/>
      <path class="cls-2" d="m303.83,171.73c0,2.02-3.77,3.65-8.42,3.65s-8.42-1.63-8.42-3.65c0-.43.17-.85.49-1.24,1.17,1.41,4.28,2.41,7.93,2.41s6.76-1,7.93-2.41c.32.39.49.81.49,1.24Z"/>
    </g>
    <line class="cls-6" x1="295.41" y1="175.38" x2="295.41" y2="185.12"/>
    <ellipse class="cls-7" cx="295.35" cy="169.25" rx="6.83" ry="2.96"/>
  </g>
  <g>
    <g>
      <path class="cls-1" d="m334.58,169.25c0,.43-.17.85-.49,1.24-1.17,1.41-4.28,2.41-7.93,2.41s-6.76-1-7.93-2.41c-.32-.39-.49-.81-.49-1.24,0-2.01,3.77-3.65,8.42-3.65s8.42,1.64,8.42,3.65Z"/>
      <path class="cls-2" d="m334.58,171.73c0,2.02-3.77,3.65-8.42,3.65s-8.42-1.63-8.42-3.65c0-.43.17-.85.49-1.24,1.17,1.41,4.28,2.41,7.93,2.41s6.76-1,7.93-2.41c.32.39.49.81.49,1.24Z"/>
    </g>
    <line class="cls-6" x1="326.16" y1="175.38" x2="326.16" y2="185.12"/>
    <ellipse class="cls-7" cx="326.1" cy="169.25" rx="6.83" ry="2.96"/>
  </g>
  <g>
    <g>
      <path class="cls-1" d="m365.34,169.25c0,.43-.17.85-.49,1.24-1.17,1.41-4.28,2.41-7.93,2.41s-6.76-1-7.93-2.41c-.32-.39-.49-.81-.49-1.24,0-2.01,3.77-3.65,8.42-3.65s8.42,1.64,8.42,3.65Z"/>
      <path class="cls-2" d="m365.34,171.73c0,2.02-3.77,3.65-8.42,3.65s-8.42-1.63-8.42-3.65c0-.43.17-.85.49-1.24,1.17,1.41,4.28,2.41,7.93,2.41s6.76-1,7.93-2.41c.32.39.49.81.49,1.24Z"/>
    </g>
    <line class="cls-6" x1="356.92" y1="175.38" x2="356.92" y2="185.12"/>
    <ellipse class="cls-7" cx="356.85" cy="169.25" rx="6.83" ry="2.96"/>
  </g>
  <g>
    <g>
      <path class="cls-1" d="m98.98,236.96c0,.43-.17.85-.49,1.24-1.17,1.41-4.28,2.41-7.93,2.41s-6.76-1-7.93-2.41c-.32-.39-.49-.81-.49-1.24,0-2.01,3.77-3.65,8.42-3.65s8.42,1.64,8.42,3.65Z"/>
      <path class="cls-2" d="m98.98,239.44c0,2.02-3.77,3.65-8.42,3.65s-8.42-1.63-8.42-3.65c0-.43.17-.85.49-1.24,1.17,1.41,4.28,2.41,7.93,2.41s6.76-1,7.93-2.41c.32.39.49.81.49,1.24Z"/>
    </g>
    <line class="cls-6" x1="90.56" y1="243.27" x2="90.56" y2="256.03"/>
    <ellipse class="cls-7" cx="90.56" cy="236.96" rx="6.83" ry="2.96"/>
  </g>
  <g>
    <g>
      <path class="cls-1" d="m129.73,236.96c0,.43-.17.85-.49,1.24-1.17,1.41-4.28,2.41-7.93,2.41s-6.76-1-7.93-2.41c-.32-.39-.49-.81-.49-1.24,0-2.01,3.77-3.65,8.42-3.65s8.42,1.64,8.42,3.65Z"/>
      <path class="cls-2" d="m129.73,239.44c0,2.02-3.77,3.65-8.42,3.65s-8.42-1.63-8.42-3.65c0-.43.17-.85.49-1.24,1.17,1.41,4.28,2.41,7.93,2.41s6.76-1,7.93-2.41c.32.39.49.81.49,1.24Z"/>
    </g>
    <line class="cls-6" x1="121.31" y1="243.27" x2="121.31" y2="256.03"/>
    <ellipse class="cls-7" cx="121.31" cy="236.96" rx="6.83" ry="2.96"/>
  </g>
  <g>
    <g>
      <path class="cls-1" d="m160.48,236.96c0,.43-.17.85-.49,1.24-1.17,1.41-4.28,2.41-7.93,2.41s-6.76-1-7.93-2.41c-.32-.39-.49-.81-.49-1.24,0-2.01,3.77-3.65,8.42-3.65s8.42,1.64,8.42,3.65Z"/>
      <path class="cls-2" d="m160.48,239.44c0,2.02-3.77,3.65-8.42,3.65s-8.42-1.63-8.42-3.65c0-.43.17-.85.49-1.24,1.17,1.41,4.28,2.41,7.93,2.41s6.76-1,7.93-2.41c.32.39.49.81.49,1.24Z"/>
    </g>
    <line class="cls-6" x1="152.07" y1="243.27" x2="152.07" y2="256.03"/>
    <ellipse class="cls-7" cx="152.07" cy="236.96" rx="6.83" ry="2.96"/>
  </g>
  <g>
    <g>
      <path class="cls-1" d="m191.24,236.96c0,.43-.17.85-.49,1.24-1.17,1.41-4.28,2.41-7.93,2.41s-6.76-1-7.93-2.41c-.32-.39-.49-.81-.49-1.24,0-2.01,3.77-3.65,8.42-3.65s8.42,1.64,8.42,3.65Z"/>
      <path class="cls-2" d="m191.24,239.44c0,2.02-3.77,3.65-8.42,3.65s-8.42-1.63-8.42-3.65c0-.43.17-.85.49-1.24,1.17,1.41,4.28,2.41,7.93,2.41s6.76-1,7.93-2.41c.32.39.49.81.49,1.24Z"/>
    </g>
    <line class="cls-6" x1="182.82" y1="243.27" x2="182.82" y2="256.03"/>
    <ellipse class="cls-7" cx="182.82" cy="236.96" rx="6.83" ry="2.96"/>
  </g>
  <g>
    <g>
      <path class="cls-1" d="m221.99,236.96c0,.43-.17.85-.49,1.24-1.17,1.41-4.28,2.41-7.93,2.41s-6.76-1-7.93-2.41c-.32-.39-.49-.81-.49-1.24,0-2.01,3.77-3.65,8.42-3.65s8.42,1.64,8.42,3.65Z"/>
      <path class="cls-2" d="m221.99,239.44c0,2.02-3.77,3.65-8.42,3.65s-8.42-1.63-8.42-3.65c0-.43.17-.85.49-1.24,1.17,1.41,4.28,2.41,7.93,2.41s6.76-1,7.93-2.41c.32.39.49.81.49,1.24Z"/>
    </g>
    <line class="cls-6" x1="213.57" y1="243.27" x2="213.57" y2="256.03"/>
    <ellipse class="cls-7" cx="213.57" cy="236.96" rx="6.83" ry="2.96"/>
  </g>
  <g>
    <g>
      <path class="cls-1" d="m252.74,236.96c0,.43-.17.85-.49,1.24-1.17,1.41-4.28,2.41-7.93,2.41s-6.76-1-7.93-2.41c-.32-.39-.49-.81-.49-1.24,0-2.01,3.77-3.65,8.42-3.65s8.42,1.64,8.42,3.65Z"/>
      <path class="cls-2" d="m252.74,239.44c0,2.02-3.77,3.65-8.42,3.65s-8.42-1.63-8.42-3.65c0-.43.17-.85.49-1.24,1.17,1.41,4.28,2.41,7.93,2.41s6.76-1,7.93-2.41c.32.39.49.81.49,1.24Z"/>
    </g>
    <line class="cls-6" x1="244.32" y1="243.27" x2="244.32" y2="256.03"/>
    <ellipse class="cls-7" cx="244.32" cy="236.96" rx="6.83" ry="2.96"/>
  </g>
  <g>
    <g>
      <path class="cls-1" d="m283.5,236.96c0,.43-.17.85-.49,1.24-1.17,1.41-4.28,2.41-7.93,2.41s-6.76-1-7.93-2.41c-.32-.39-.49-.81-.49-1.24,0-2.01,3.77-3.65,8.42-3.65s8.42,1.64,8.42,3.65Z"/>
      <path class="cls-2" d="m283.5,239.44c0,2.02-3.77,3.65-8.42,3.65s-8.42-1.63-8.42-3.65c0-.43.17-.85.49-1.24,1.17,1.41,4.28,2.41,7.93,2.41s6.76-1,7.93-2.41c.32.39.49.81.49,1.24Z"/>
    </g>
    <line class="cls-6" x1="275.08" y1="243.27" x2="275.08" y2="256.03"/>
    <ellipse class="cls-7" cx="275.08" cy="236.96" rx="6.83" ry="2.96"/>
  </g>
  <g>
    <g>
      <path class="cls-1" d="m314.25,236.96c0,.43-.17.85-.49,1.24-1.17,1.41-4.28,2.41-7.93,2.41s-6.76-1-7.93-2.41c-.32-.39-.49-.81-.49-1.24,0-2.01,3.77-3.65,8.42-3.65s8.42,1.64,8.42,3.65Z"/>
      <path class="cls-2" d="m314.25,239.44c0,2.02-3.77,3.65-8.42,3.65s-8.42-1.63-8.42-3.65c0-.43.17-.85.49-1.24,1.17,1.41,4.28,2.41,7.93,2.41s6.76-1,7.93-2.41c.32.39.49.81.49,1.24Z"/>
    </g>
    <line class="cls-6" x1="305.83" y1="243.27" x2="305.83" y2="256.03"/>
    <ellipse class="cls-7" cx="305.83" cy="236.96" rx="6.83" ry="2.96"/>
  </g>
  <g>
    <g>
      <path class="cls-1" d="m345,236.96c0,.43-.17.85-.49,1.24-1.17,1.41-4.28,2.41-7.93,2.41s-6.76-1-7.93-2.41c-.32-.39-.49-.81-.49-1.24,0-2.01,3.77-3.65,8.42-3.65s8.42,1.64,8.42,3.65Z"/>
      <path class="cls-2" d="m345,239.44c0,2.02-3.77,3.65-8.42,3.65s-8.42-1.63-8.42-3.65c0-.43.17-.85.49-1.24,1.17,1.41,4.28,2.41,7.93,2.41s6.76-1,7.93-2.41c.32.39.49.81.49,1.24Z"/>
    </g>
    <line class="cls-6" x1="336.58" y1="243.27" x2="336.58" y2="256.03"/>
    <ellipse class="cls-7" cx="336.58" cy="236.96" rx="6.83" ry="2.96"/>
  </g>
  <g>
    <g>
      <path class="cls-1" d="m66.76,238.66c0,.59-.42,1.15-1.17,1.67-2.38,1.62-8.14,2.76-14.87,2.76s-12.49-1.14-14.87-2.76c-.75-.52-1.17-1.08-1.17-1.67,0-2.44,7.18-4.42,16.04-4.42s16.04,1.98,16.04,4.42Z"/>
      <path class="cls-2" d="m66.76,241.99c0,2.44-7.18,4.42-16.04,4.42s-16.04-1.98-16.04-4.42c0-.59.42-1.15,1.17-1.66,2.38,1.62,8.14,2.76,14.87,2.76s12.49-1.14,14.87-2.76c.75.51,1.17,1.07,1.17,1.66Z"/>
    </g>
    <line class="cls-6" x1="50.72" y1="246.41" x2="50.72" y2="263.51"/>
    <ellipse class="cls-7" cx="50.72" cy="238.67" rx="13.57" ry="3.75"/>
  </g>
  <g>
    <g>
      <g>
        <path class="cls-1" d="m395.48,238.66c0,.59-.42,1.15-1.17,1.67-2.38,1.62-8.14,2.76-14.87,2.76s-12.49-1.14-14.87-2.76c-.75-.52-1.17-1.08-1.17-1.67,0-2.44,7.18-4.42,16.04-4.42s16.04,1.98,16.04,4.42Z"/>
        <path class="cls-2" d="m395.48,241.99c0,2.44-7.18,4.42-16.04,4.42s-16.04-1.98-16.04-4.42c0-.59.42-1.15,1.17-1.66,2.38,1.62,8.14,2.76,14.87,2.76s12.49-1.14,14.87-2.76c.75.51,1.17,1.07,1.17,1.66Z"/>
      </g>
      <line class="cls-6" x1="379.44" y1="246.61" x2="379.44" y2="263.7"/>
    </g>
    <ellipse class="cls-7" cx="379.44" cy="238.67" rx="13.57" ry="3.75"/>
  </g>
  <path class="cls-1" d="m64.54,281.73s-2.23-21.06,7.17-21.06h271.69c3.36,0,13.17-2.54,17.16,12.48,1.25,4.47,1.42,8.44,1.42,8.44,0,0-8.42,1.79-19.14,1.87s-250.5.09-251.67.09-15.31-.14-20.22-.84-6.41-.98-6.41-.98Z"/>
</svg>